<?xml version="1.0" encoding="utf-8"?>
<!-- Generator: Adobe Illustrator 15.0.2, SVG Export Plug-In . SVG Version: 6.00 Build 0)  -->
<!DOCTYPE svg PUBLIC "-//W3C//DTD SVG 1.1//EN" "http://www.w3.org/Graphics/SVG/1.1/DTD/svg11.dtd">
<svg version="1.1" id="Фигура_1_1_" xmlns="http://www.w3.org/2000/svg" xmlns:xlink="http://www.w3.org/1999/xlink" x="0px"
	 y="0px" width="18px" height="16px" viewBox="0 0 18 16" enable-background="new 0 0 18 16" xml:space="preserve">
<g id="Фигура_1">
	<g>
		<path fill-rule="evenodd" clip-rule="evenodd" fill="#7f0012" d="M12.168,0.176c-0.828,0-1.618,0.19-2.35,0.564
			C9.434,0.937,9.075,1.181,8.75,1.468C8.426,1.181,8.067,0.937,7.682,0.74C6.95,0.366,6.16,0.176,5.333,0.176
			c-2.851,0-5.17,2.319-5.17,5.17c0,1.97,1.022,4.042,3.037,6.161c1.652,1.735,3.665,3.176,5.063,4.078l0.487,0.316l0.487-0.316
			c1.397-0.902,3.411-2.342,5.062-4.078c2.016-2.118,3.037-4.191,3.037-6.161C17.337,2.495,15.018,0.176,12.168,0.176z
			 M13.211,10.389c-1.443,1.518-3.201,2.816-4.46,3.662c-1.258-0.845-3.015-2.143-4.46-3.662C2.519,8.527,1.621,6.788,1.621,5.221
			c0-1.953,1.588-3.542,3.542-3.542c1.124,0,2.157,0.516,2.834,1.416L8.75,4.1l0.753-1.004c0.678-0.901,1.71-1.417,2.834-1.417
			c1.953,0,3.543,1.589,3.543,3.542C15.881,6.788,14.982,8.527,13.211,10.389z"/>
	</g>
</g>
</svg>
