<?xml version="1.0" encoding="utf-8"?>
<!-- Generator: Adobe Illustrator 15.0.2, SVG Export Plug-In . SVG Version: 6.00 Build 0)  -->
<!DOCTYPE svg PUBLIC "-//W3C//DTD SVG 1.1//EN" "http://www.w3.org/Graphics/SVG/1.1/DTD/svg11.dtd">
<svg version="1.1" id="Иконка_1_" xmlns="http://www.w3.org/2000/svg" xmlns:xlink="http://www.w3.org/1999/xlink" x="0px"
	 y="0px" width="66px" height="64px" viewBox="0 0 66 64" enable-background="new 0 0 66 64" xml:space="preserve">
<g id="Иконка">
	<g>
		<path fill-rule="evenodd" clip-rule="evenodd" fill="#7f0012" d="M64.463,30.557C53.037,19.422,53.037,19.422,53.037,19.422
			c-0.253-0.332-0.506-0.453-0.698-0.393c-0.191,0.061-0.313,0.313-0.313,0.726v23.768c0,0.423,0.122,0.715,0.313,0.815
			c0.192,0.101,0.445,0.021,0.698-0.312c11.426-11.306,11.426-11.306,11.426-11.306C65.13,32.228,65.13,31.221,64.463,30.557z
			 M34.381,0.798l-0.778-0.322h-0.809l-0.769,0.322c-11.77,11.638-11.77,11.638-11.77,11.638c-0.505,0.664-0.333,1.168,0.506,1.168
			h5.207c0.85,0,1.517,0.664,1.517,1.5c0,8.638,0,8.638,0,8.638c0,0.835,0.677,1.5,1.517,1.5c8.564,0,8.564,0,8.564,0
			c1.012,0,1.688-0.665,1.688-1.5c0-8.638,0-8.638,0-8.638c0-0.836,0.667-1.5,1.507-1.5c4.873,0,4.873,0,4.873,0
			c0.84,0,1.012-0.504,0.506-1.168C34.381,0.798,34.381,0.798,34.381,0.798z M14.371,18.777c-0.202-0.101-0.496-0.02-0.839,0.313
			C1.934,30.557,1.934,30.557,1.934,30.557c-0.667,0.664-0.667,1.671,0,2.164c11.598,11.638,11.598,11.638,11.598,11.638
			c0.344,0.252,0.637,0.332,0.839,0.252c0.212-0.081,0.344-0.332,0.344-0.755V19.594C14.714,19.171,14.583,18.878,14.371,18.777z
			 M45.302,50.178h-4.54c-0.84,0-1.507-0.665-1.507-1.661c0-9.141,0-9.141,0-9.141c0-0.836-0.677-1.501-1.688-1.501
			c-8.564,0-8.564,0-8.564,0c-0.839,0-1.517,0.665-1.517,1.501c0,9.141,0,9.141,0,9.141c0,0.996-0.667,1.661-1.517,1.661
			c-4.874,0-4.874,0-4.874,0c-0.839,0-1.173,0.492-0.496,0.996C32.025,62.64,32.025,62.64,32.025,62.64
			c0.334,0.332,0.759,0.504,1.173,0.504c0.425,0,0.839-0.172,1.183-0.504c11.426-11.466,11.426-11.466,11.426-11.466
			C46.475,50.67,46.141,50.178,45.302,50.178z"/>
	</g>
</g>
</svg>
