<?xml version="1.0" encoding="utf-8"?>
<!-- Generator: Adobe Illustrator 15.0.2, SVG Export Plug-In . SVG Version: 6.00 Build 0)  -->
<!DOCTYPE svg PUBLIC "-//W3C//DTD SVG 1.1//EN" "http://www.w3.org/Graphics/SVG/1.1/DTD/svg11.dtd">
<svg version="1.1" id="Иконка_1_" xmlns="http://www.w3.org/2000/svg" xmlns:xlink="http://www.w3.org/1999/xlink" x="0px"
	 y="0px" width="66px" height="64px" viewBox="0 0 66 64" enable-background="new 0 0 66 64" xml:space="preserve">
<g id="Иконка">
	<g>
		<path fill-rule="evenodd" clip-rule="evenodd" fill="#7f0012" d="M60.869,9.999H6.084c-1.15,0-2.083,0.933-2.083,2.083v40.836
			c0,1.15,0.932,2.083,2.083,2.083h54.785c1.15,0,2.083-0.933,2.083-2.083V12.082C62.952,10.932,62.02,9.999,60.869,9.999z
			 M58.787,50.835H8.167V30.013h50.62V50.835z M58.787,20.136H8.167v-5.971h50.62V20.136z M13.271,38.872h15.831
			c1.15,0,2.083-0.932,2.083-2.082s-0.933-2.083-2.083-2.083H13.271c-1.15,0-2.083,0.933-2.083,2.083S12.121,38.872,13.271,38.872z"
			/>
	</g>
</g>
</svg>
