<?xml version="1.0" encoding="utf-8"?>
<!-- Generator: Adobe Illustrator 15.0.2, SVG Export Plug-In . SVG Version: 6.00 Build 0)  -->
<!DOCTYPE svg PUBLIC "-//W3C//DTD SVG 1.1//EN" "http://www.w3.org/Graphics/SVG/1.1/DTD/svg11.dtd">
<svg version="1.1" id="Иконка_1_" xmlns="http://www.w3.org/2000/svg" xmlns:xlink="http://www.w3.org/1999/xlink" x="0px"
	 y="0px" width="66px" height="64px" viewBox="0 0 66 64" enable-background="new 0 0 66 64" xml:space="preserve">
<g id="Иконка">
	<g>
		<path fill-rule="evenodd" clip-rule="evenodd" fill="#7f0012" d="M65.697,30.953l-5.975-11.594
			c-0.367-0.711-1.099-1.157-1.897-1.157H42.389V9.737c0-1.179-0.955-2.134-2.133-2.134H2.199c-1.178,0-2.134,0.955-2.134,2.134
			v39.408c0,1.178,0.955,2.134,2.134,2.134h5.412c0.944,3.517,4.151,6.117,7.962,6.117c3.811,0,7.017-2.6,7.961-6.117h20.924
			c0.944,3.517,4.15,6.117,7.962,6.117c3.811,0,7.017-2.6,7.961-6.117h3.42c1.178,0,2.134-0.955,2.134-2.134V31.931
			C65.935,31.591,65.854,31.256,65.697,30.953z M15.573,53.13c-2.197,0-3.984-1.787-3.984-3.984c0-2.196,1.788-3.983,3.984-3.983
			c2.196,0,3.983,1.787,3.983,3.983C19.556,51.343,17.769,53.13,15.573,53.13z M38.121,47.012H23.534
			c-0.944-3.518-4.15-6.118-7.961-6.118s-7.018,2.601-7.962,6.117H4.333v-35.14h33.788V47.012z M42.389,22.471h14.136l3.812,7.397
			H42.389V22.471z M52.42,53.13c-2.197,0-3.984-1.787-3.984-3.984c0-2.196,1.787-3.983,3.984-3.983c2.195,0,3.982,1.787,3.982,3.983
			C56.402,51.343,54.615,53.13,52.42,53.13z M61.666,47.012h-1.285c-0.943-3.518-4.15-6.118-7.961-6.118
			c-3.812,0-7.018,2.601-7.963,6.118h-2.068V34.136h19.277V47.012z M16.459,34.283c0.416,0.422,0.967,0.636,1.519,0.636
			c0.505,0,1.011-0.179,1.416-0.539l12.092-10.741c0.881-0.783,0.961-2.132,0.179-3.013c-0.784-0.882-2.132-0.961-3.013-0.178
			l-10.579,9.396l-4.197-4.251c-0.828-0.839-2.18-0.847-3.017-0.019c-0.839,0.827-0.848,2.179-0.02,3.018L16.459,34.283z"/>
	</g>
</g>
</svg>
