<?xml version="1.0" encoding="utf-8"?>
<!-- Generator: Adobe Illustrator 15.0.0, SVG Export Plug-In . SVG Version: 6.00 Build 0)  -->
<!DOCTYPE svg PUBLIC "-//W3C//DTD SVG 1.1//EN" "http://www.w3.org/Graphics/SVG/1.1/DTD/svg11.dtd">
<svg version="1.1" id="Вектор_1_" xmlns="http://www.w3.org/2000/svg" xmlns:xlink="http://www.w3.org/1999/xlink" x="0px" y="0px" width="450.146px" height="66.369px" viewBox="0 -0.001 450.146 66.369" enable-background="new 0 -0.001 450.146 66.369" xml:space="preserve">
	<polygon fill="#DF0000" points="83.345,1.993 63.361,21.976 103.328,21.976 123.312,1.993 "/>
	<polygon fill="#DF0000" points="41.38,1.993 21.396,21.976 61.363,21.976 81.347,1.993 "/>
	<linearGradient id="SVGID_1_" gradientUnits="userSpaceOnUse" x1="30.0349" y1="-754.3506" x2="30.0349" y2="-734.3667" gradientTransform="matrix(1 0 0 -1 -0.0601 -710.9775)">
		<stop  offset="0" style="stop-color:#990000;stop-opacity:0.95"/>
		<stop  offset="1" style="stop-color:#DF0000"/>
	</linearGradient>
	<polygon fill="url(#SVGID_1_)" points="0,43.373 39.967,43.373 59.95,23.389 19.983,23.389 "/>
	<g id="_x32__1_">
		<g>
			<g>
				<polygon fill="#FFFFFF" points="61.949,23.389 41.965,43.373 81.932,43.373 101.916,23.389 			"/>
			</g>
		</g>
	</g>
	<g id="_x32_">
		<g>
			<g>
				
					<linearGradient id="SVGID_2_" gradientUnits="userSpaceOnUse" x1="42.0046" y1="809.8232" x2="101.9558" y2="809.8232" gradientTransform="matrix(1 0 0 1 -0.04 -776.4414)">
					<stop  offset="0" style="stop-color:#000000;stop-opacity:0.95"/>
					<stop  offset="1" style="stop-color:#000000;stop-opacity:0.65"/>
				</linearGradient>
				<polygon fill="url(#SVGID_2_)" points="61.949,23.389 41.965,43.373 81.932,43.373 101.916,23.389 			"/>
			</g>
		</g>
	</g>
	<path fill="#FFFFFF" d="M279.117,57.024c-0.33-0.51-0.765-0.898-1.304-1.168c-0.539-0.271-1.146-0.404-1.813-0.404
		c-0.748,0-1.423,0.16-2.021,0.479c-0.602,0.319-1.069,0.771-1.415,1.348c-0.345,0.58-0.519,1.238-0.519,1.979s0.174,1.4,0.519,1.984
		c0.346,0.584,0.816,1.036,1.423,1.36c0.604,0.324,1.275,0.486,2.015,0.486c0.647,0,1.24-0.13,1.773-0.39
		c0.534-0.259,0.967-0.64,1.296-1.138v1.002c0,0.979-0.233,1.701-0.703,2.164c-0.471,0.465-1.203,0.694-2.202,0.694
		c-0.599,0-1.17-0.095-1.714-0.282c-0.544-0.189-1.007-0.455-1.387-0.793l-0.539,0.809c0.41,0.38,0.941,0.677,1.597,0.892
		c0.652,0.214,1.347,0.321,2.073,0.321c1.317,0,2.304-0.321,2.957-0.967c0.654-0.646,0.98-1.635,0.98-2.975V55.51h-1.02
		L279.117,57.024L279.117,57.024z M278.72,60.753c-0.257,0.439-0.611,0.781-1.07,1.025c-0.46,0.244-0.976,0.367-1.542,0.367
		c-0.569,0-1.082-0.123-1.535-0.367c-0.454-0.244-0.809-0.586-1.063-1.025c-0.256-0.439-0.384-0.938-0.384-1.498
		c0-0.559,0.127-1.058,0.384-1.497c0.255-0.438,0.606-0.778,1.063-1.019c0.453-0.239,0.966-0.359,1.535-0.359
		c0.578,0,1.096,0.123,1.55,0.367c0.454,0.245,0.809,0.584,1.063,1.02s0.382,0.933,0.382,1.488
		C279.102,59.815,278.975,60.313,278.72,60.753z"/>
	<path fill="#FFFFFF" d="M374.446,55.452c-0.679,0-1.272,0.133-1.789,0.396c-0.515,0.266-0.916,0.637-1.206,1.113v-1.449h-1.018
		v7.877h1.063v-4.137c0-0.888,0.248-1.584,0.742-2.089c0.494-0.504,1.165-0.756,2.017-0.756c0.759,0,1.343,0.215,1.752,0.644
		c0.406,0.432,0.611,1.057,0.611,1.872v4.466h1.063v-4.567c0-1.099-0.292-1.936-0.876-2.509
		C376.221,55.739,375.435,55.452,374.446,55.452z"/>
	<path fill="#FFFFFF" d="M291.013,43.369v-28.55h-9.396c0,3.324-0.001,7.369,0,11.357c0,2.058,0.12,3.961-0.155,5.523
		c-0.276,1.572-0.937,2.881-1.962,3.718c-0.937,0.764-2.742,1.313-4.438,0.773c-3.397-1.078-2.735-6.666-2.735-11.15V14.819h-9.448
		l-0.052,0.154V27.57c0,2.156-0.072,4.31,0.052,6.248c0.355,5.576,3.488,9.688,8.674,10.273c3.946,0.447,7.262-0.872,9.294-3.148
		c0.438-0.488,0.646-1.021,1.084-1.498v3.927L291.013,43.369L291.013,43.369z"/>
	<path fill="#FFFFFF" d="M253.629,55.961c-0.606-0.34-1.293-0.51-2.051-0.51c-0.761,0-1.441,0.17-2.053,0.51
		c-0.608,0.339-1.089,0.813-1.438,1.422c-0.351,0.609-0.522,1.3-0.522,2.067c0,0.767,0.176,1.457,0.522,2.066
		c0.351,0.606,0.828,1.084,1.438,1.43c0.606,0.345,1.292,0.517,2.053,0.517c0.758,0,1.441-0.172,2.051-0.517
		c0.608-0.346,1.086-0.82,1.433-1.43c0.345-0.61,0.518-1.301,0.518-2.066c0-0.768-0.173-1.458-0.518-2.067
		C254.715,56.774,254.238,56.3,253.629,55.961z M254.123,61.052c-0.249,0.471-0.597,0.832-1.04,1.086
		c-0.442,0.256-0.944,0.383-1.505,0.383s-1.062-0.127-1.507-0.383c-0.442-0.254-0.793-0.615-1.048-1.086
		c-0.255-0.469-0.382-1.003-0.382-1.602c0-0.6,0.127-1.133,0.382-1.604c0.255-0.472,0.604-0.83,1.048-1.088
		c0.445-0.254,0.946-0.382,1.507-0.382s1.063,0.128,1.505,0.382c0.443,0.258,0.791,0.616,1.04,1.088
		c0.25,0.471,0.375,1.004,0.375,1.604C254.498,60.049,254.373,60.583,254.123,61.052z"/>
	<path fill="#FFFFFF" d="M246.252,0.156v17.657c-1.646-1.546-3.717-3.223-6.558-3.666c-3.197-0.499-6.34,0.167-8.569,1.445
		c-4.104,2.352-7.244,7.104-7.176,13.476c0.063,6.027,2.758,10.812,6.659,13.216c2.104,1.298,4.993,2.104,8.003,1.857
		c2.945-0.24,5.479-1.319,7.072-2.893c0.371-0.366,0.688-0.855,0.979-1.236c0.073-0.1,0.185-0.336,0.36-0.313v3.667h8.674V0.001
		h-9.396L246.252,0.156z M246.665,29.583c-0.229,3.452-2.794,6.45-5.989,6.764c-3.729,0.365-5.937-1.604-6.969-4.13
		c-0.382-0.93-0.672-1.854-0.672-3.253c0-2.429,1.003-4.493,2.375-5.679c0.94-0.813,2.441-1.528,4.284-1.55
		c2.171-0.024,3.714,0.83,4.854,2.015C245.779,25.028,246.842,26.934,246.665,29.583z"/>
	<path fill="#FFFFFF" d="M258.586,52.276c-0.22,0-0.402,0.076-0.554,0.226c-0.149,0.149-0.226,0.325-0.226,0.524
		c0,0.209,0.073,0.39,0.226,0.539c0.148,0.147,0.334,0.225,0.554,0.225c0.222,0,0.403-0.074,0.557-0.225
		c0.147-0.149,0.226-0.334,0.226-0.557c0-0.197-0.075-0.369-0.226-0.517C258.99,52.351,258.806,52.276,258.586,52.276z"/>
	<path fill="#FFFFFF" d="M290.879,62.446c-0.204,0.068-0.416,0.104-0.636,0.104c-0.438,0-0.776-0.122-1.012-0.367
		c-0.233-0.244-0.354-0.601-0.354-1.07v-4.699h2.396v-0.896h-2.396V53.79h-1.063v1.723h-1.406v0.898h1.406v4.762
		c0,0.729,0.2,1.293,0.601,1.692c0.399,0.399,0.971,0.599,1.707,0.599c0.318,0,0.627-0.047,0.922-0.142
		c0.293-0.097,0.541-0.232,0.74-0.412l-0.374-0.765C291.262,62.276,291.084,62.375,290.879,62.446z"/>
	<rect x="258.047" y="55.513" fill="#FFFFFF" width="1.063" height="7.877"/>
	<path fill="#FFFFFF" d="M266.389,55.452c-0.682,0-1.275,0.133-1.79,0.396c-0.517,0.264-0.916,0.637-1.206,1.113v-1.449h-1.02v7.877
		h1.063v-4.137c0-0.888,0.248-1.584,0.742-2.089c0.492-0.504,1.165-0.756,2.014-0.756c0.76,0,1.344,0.215,1.752,0.644
		c0.41,0.432,0.614,1.057,0.614,1.872v4.466h1.063v-4.567c0-1.099-0.293-1.936-0.877-2.509
		C268.161,55.739,267.377,55.452,266.389,55.452z"/>
	<path fill="#FFFFFF" d="M339.842,55.452c-0.682,0-1.275,0.133-1.789,0.396c-0.518,0.266-0.916,0.637-1.206,1.113v-1.449h-1.021
		v7.877h1.063v-4.137c0-0.888,0.247-1.584,0.741-2.089c0.491-0.504,1.166-0.756,2.015-0.756c0.758,0,1.343,0.215,1.752,0.644
		c0.409,0.432,0.614,1.057,0.614,1.872v4.466h1.063v-4.567c0-1.099-0.292-1.936-0.876-2.509
		C341.613,55.739,340.827,55.452,339.842,55.452z"/>
	<path fill="#FFFFFF" d="M374.342,28.085c6.643,0.301,12.406-0.317,16.211-2.993c1.752-1.233,3.367-3.118,4.13-5.473
		c0.764-2.356,0.872-5.84,0.052-8.57c-0.717-2.386-2.245-4.26-4.079-5.524c-1.938-1.339-4.385-2.069-7.176-2.478
		c-2.872-0.42-6.048-0.31-9.293-0.31h-9.654l-0.103,0.154v40.477h9.857C374.322,38.292,374.22,33.078,374.342,28.085z
		 M374.287,10.843l0.055-0.155c4.648-0.002,9.58-0.444,10.841,2.892c0.429,1.133,0.345,2.674-0.051,3.665
		c-1.3,3.246-6.347,3.124-10.845,2.994V10.843L374.287,10.843z"/>
	<path fill="#FFFFFF" d="M361.885,55.961c-0.579-0.34-1.233-0.51-1.962-0.51c-0.729,0-1.388,0.17-1.972,0.51
		c-0.584,0.339-1.044,0.813-1.378,1.422c-0.335,0.609-0.502,1.3-0.502,2.067c0,0.767,0.175,1.457,0.524,2.066
		c0.349,0.606,0.836,1.084,1.46,1.43c0.624,0.345,1.34,0.517,2.146,0.517c0.629,0,1.205-0.108,1.729-0.329
		c0.521-0.22,0.96-0.539,1.31-0.959l-0.599-0.688c-0.3,0.34-0.654,0.597-1.063,0.771c-0.406,0.175-0.855,0.263-1.348,0.263
		c-0.868,0-1.587-0.252-2.156-0.756c-0.566-0.505-0.884-1.166-0.94-1.982h6.589l0.015-0.329c0-0.779-0.164-1.472-0.494-2.074
		C362.915,56.772,362.464,56.3,361.885,55.961z M357.136,58.985c0.066-0.777,0.358-1.409,0.876-1.896
		c0.514-0.48,1.147-0.727,1.909-0.727c0.769,0,1.407,0.24,1.925,0.727c0.514,0.484,0.806,1.116,0.876,1.896H357.136z"/>
	<path fill="#FFFFFF" d="M328.443,13.889c-3.019,0.16-5.668,1.065-7.744,2.374c-3.961,2.497-6.713,7-6.712,13.113
		c0,3.115,0.771,5.743,2.064,7.898c2.466,4.107,7.081,6.842,12.854,7.021c6.593,0.207,10.9-2.065,13.784-6.092
		c-2.177-1.368-4.37-2.72-6.504-4.13c-0.51,0.449-0.887,1.017-1.445,1.443c-1.261,0.967-2.938,1.586-5.009,1.549
		c-3.554-0.063-6.276-2.256-6.711-5.368h20.702c0.379-5.648-0.845-10.039-3.407-13.063C337.837,15.711,334.029,13.592,328.443,13.889
		z M323.022,25.815c0.291-3.051,2.719-5.179,5.833-5.421c3.85-0.3,6.056,1.806,6.248,5.421H323.022z"/>
	<path fill="#FFFFFF" d="M352.568,57.024c-0.329-0.51-0.764-0.898-1.303-1.168c-0.539-0.271-1.146-0.404-1.813-0.404
		c-0.749,0-1.423,0.16-2.021,0.479c-0.602,0.319-1.07,0.771-1.415,1.348c-0.344,0.58-0.52,1.238-0.52,1.979s0.176,1.4,0.52,1.984
		c0.345,0.584,0.815,1.036,1.423,1.36c0.604,0.324,1.275,0.486,2.015,0.486c0.648,0,1.24-0.13,1.774-0.39
		c0.533-0.259,0.966-0.64,1.295-1.138v1.002c0,0.979-0.234,1.701-0.704,2.164c-0.469,0.465-1.203,0.694-2.201,0.694
		c-0.599,0-1.171-0.095-1.715-0.282c-0.544-0.189-1.006-0.455-1.385-0.793l-0.539,0.809c0.409,0.38,0.94,0.677,1.595,0.892
		c0.653,0.214,1.349,0.321,2.074,0.321c1.317,0,2.304-0.321,2.957-0.967c0.654-0.646,0.981-1.635,0.981-2.975V55.51h-1.021
		L352.568,57.024L352.568,57.024z M352.174,60.753c-0.257,0.439-0.612,0.781-1.071,1.025s-0.973,0.367-1.542,0.367
		s-1.081-0.123-1.535-0.367s-0.809-0.586-1.063-1.025c-0.257-0.439-0.385-0.938-0.385-1.498c0-0.559,0.128-1.058,0.385-1.497
		c0.255-0.438,0.606-0.778,1.063-1.019c0.454-0.239,0.966-0.359,1.535-0.359c0.579,0,1.096,0.123,1.55,0.367
		c0.454,0.245,0.812,0.584,1.063,1.02c0.254,0.436,0.382,0.933,0.382,1.488C352.554,59.815,352.427,60.313,352.174,60.753z"/>
	<path fill="#FFFFFF" d="M309.372,56.763c0.454-0.255,0.969-0.383,1.535-0.383c0.473,0,0.903,0.098,1.306,0.292
		c0.397,0.194,0.729,0.486,0.985,0.876l0.794-0.539c-0.31-0.509-0.729-0.896-1.266-1.16s-1.141-0.396-1.819-0.396
		c-0.775,0-1.475,0.17-2.089,0.51c-0.614,0.339-1.096,0.813-1.445,1.422c-0.349,0.609-0.521,1.3-0.521,2.067
		c0,0.767,0.175,1.46,0.521,2.072c0.353,0.613,0.831,1.093,1.445,1.432c0.614,0.34,1.313,0.509,2.089,0.509
		c0.669,0,1.273-0.132,1.813-0.396s0.963-0.65,1.271-1.16l-0.794-0.538c-0.26,0.389-0.589,0.679-0.985,0.868
		c-0.399,0.188-0.833,0.283-1.306,0.283c-0.566,0-1.081-0.127-1.535-0.381c-0.451-0.257-0.809-0.613-1.063-1.078
		c-0.255-0.465-0.382-1.002-0.382-1.609c0-0.6,0.127-1.133,0.382-1.604C308.564,57.378,308.921,57.017,309.372,56.763z"/>
	<path fill="#FFFFFF" d="M329.447,55.452c-0.619,0-1.208,0.093-1.768,0.277c-0.562,0.184-1.038,0.444-1.438,0.785l0.479,0.795
		c0.329-0.291,0.724-0.52,1.183-0.685c0.46-0.165,0.938-0.247,1.438-0.247c0.729,0,1.279,0.18,1.662,0.532
		c0.379,0.354,0.565,0.87,0.565,1.55v0.479h-2.5c-1.059,0-1.83,0.205-2.313,0.615c-0.484,0.407-0.729,0.946-0.729,1.615
		c0,0.688,0.259,1.243,0.778,1.662c0.519,0.42,1.218,0.629,2.097,0.629c0.642,0,1.19-0.113,1.654-0.344
		c0.465-0.229,0.813-0.551,1.056-0.959v1.229h1.021v-4.883c0-1.009-0.274-1.77-0.823-2.283
		C331.264,55.709,330.476,55.452,329.447,55.452z M331.573,61.022c-0.209,0.52-0.526,0.916-0.958,1.188
		c-0.43,0.272-0.94,0.412-1.542,0.412c-0.629,0-1.118-0.133-1.468-0.396c-0.35-0.266-0.524-0.625-0.524-1.086
		c0-0.938,0.677-1.406,2.021-1.406h2.471V61.022L331.573,61.022z"/>
	<path fill="#FFFFFF" d="M299.005,55.961c-0.608-0.34-1.295-0.51-2.054-0.51s-1.442,0.17-2.052,0.51
		c-0.608,0.339-1.088,0.813-1.438,1.422c-0.351,0.609-0.522,1.3-0.522,2.067c0,0.767,0.175,1.457,0.522,2.066
		c0.351,0.606,0.828,1.084,1.438,1.43c0.606,0.345,1.293,0.517,2.052,0.517s1.442-0.172,2.054-0.517
		c0.606-0.346,1.086-0.82,1.431-1.43c0.345-0.61,0.517-1.301,0.517-2.066c0-0.768-0.172-1.458-0.517-2.067
		C300.091,56.774,299.612,56.3,299.005,55.961z M299.496,61.052c-0.249,0.471-0.597,0.832-1.04,1.086
		c-0.441,0.256-0.943,0.383-1.505,0.383c-0.56,0-1.062-0.127-1.505-0.383c-0.444-0.254-0.795-0.615-1.049-1.086
		c-0.254-0.469-0.382-1.003-0.382-1.602c0-0.6,0.128-1.133,0.382-1.604c0.254-0.472,0.604-0.83,1.049-1.088
		c0.443-0.254,0.945-0.382,1.505-0.382c0.562,0,1.063,0.128,1.505,0.382c0.443,0.258,0.791,0.616,1.04,1.088
		c0.25,0.471,0.375,1.004,0.375,1.604C299.871,60.049,299.746,60.583,299.496,61.052z"/>
	<path fill="#FFFFFF" d="M385.916,55.961c-0.576-0.34-1.229-0.51-1.961-0.51c-0.729,0-1.386,0.17-1.97,0.51
		c-0.584,0.339-1.043,0.813-1.378,1.422c-0.334,0.609-0.501,1.3-0.501,2.067c0,0.767,0.174,1.457,0.523,2.066
		c0.349,0.606,0.836,1.084,1.46,1.43c0.624,0.345,1.341,0.517,2.146,0.517c0.629,0,1.205-0.108,1.729-0.329
		c0.521-0.22,0.961-0.539,1.311-0.959l-0.6-0.688c-0.299,0.34-0.653,0.597-1.063,0.771c-0.41,0.175-0.856,0.263-1.348,0.263
		c-0.869,0-1.588-0.252-2.157-0.756c-0.566-0.505-0.883-1.166-0.941-1.982h6.591l0.015-0.329c0-0.779-0.165-1.472-0.494-2.074
		S386.495,56.3,385.916,55.961z M381.172,58.985c0.067-0.777,0.359-1.409,0.876-1.896c0.515-0.48,1.148-0.727,1.907-0.727
		c0.771,0,1.409,0.24,1.927,0.727c0.514,0.484,0.806,1.116,0.876,1.896H381.172z"/>
	<path fill="#FFFFFF" d="M320.268,55.452c-0.659,0-1.243,0.125-1.752,0.375s-0.908,0.604-1.198,1.063v-4.611h-1.063V63.39h1.063
		v-4.134c0-0.888,0.247-1.584,0.741-2.089c0.494-0.504,1.166-0.756,2.015-0.756c0.759,0,1.343,0.215,1.752,0.645
		s0.614,1.053,0.614,1.871v4.463h1.063v-4.564c0-1.102-0.292-1.938-0.876-2.512C322.045,55.74,321.258,55.452,320.268,55.452z"/>
	<path fill="#FFFFFF" d="M165.188,55.452c-0.619,0-1.208,0.093-1.769,0.277c-0.561,0.184-1.039,0.444-1.438,0.785l0.479,0.795
		c0.329-0.291,0.726-0.52,1.185-0.685s0.938-0.247,1.438-0.247c0.729,0,1.283,0.18,1.662,0.532s0.568,0.87,0.568,1.55v0.479h-2.5
		c-1.061,0-1.83,0.205-2.313,0.615c-0.482,0.407-0.727,0.946-0.727,1.615c0,0.688,0.26,1.243,0.779,1.662
		c0.519,0.42,1.218,0.629,2.096,0.629c0.64,0,1.189-0.113,1.655-0.344c0.464-0.229,0.814-0.551,1.056-0.959v1.229h1.019v-4.883
		c0-1.009-0.273-1.77-0.822-2.283C167.004,55.709,166.216,55.452,165.188,55.452z M167.314,61.022
		c-0.209,0.52-0.528,0.916-0.958,1.188c-0.432,0.272-0.942,0.412-1.542,0.412c-0.629,0-1.118-0.133-1.468-0.396
		c-0.352-0.266-0.524-0.625-0.524-1.086c0-0.938,0.675-1.406,2.021-1.406h2.473L167.314,61.022L167.314,61.022z"/>
	<path fill="#FFFFFF" d="M156.008,55.452c-0.657,0-1.241,0.125-1.752,0.375c-0.509,0.25-0.906,0.604-1.196,1.063v-4.611h-1.063V63.39
		h1.063v-4.134c0-0.888,0.247-1.584,0.739-2.089c0.494-0.504,1.166-0.756,2.016-0.756c0.759,0,1.344,0.215,1.752,0.645
		c0.409,0.43,0.614,1.053,0.614,1.871v4.463h1.063v-4.564c0-1.102-0.292-1.938-0.876-2.512
		C157.782,55.74,156.997,55.452,156.008,55.452z"/>
	<path fill="#FFFFFF" d="M407.535,18.536c-0.063,0.101-0.087,0.413-0.311,0.36v-4.077h-9.086v28.55h9.447v-7.437
		c0.001-2.565-0.159-5.146,0-7.483c0.276-4.08,3.312-6.522,7.741-6.196c0.435,0.031,0.896,0.17,1.396,0.258
		c0.085-2.771,0.313-5.674,0.361-8.312C412.26,13.245,409.261,15.753,407.535,18.536z"/>
	<path fill="#FFFFFF" d="M174.809,62.446c-0.205,0.068-0.417,0.104-0.638,0.104c-0.438,0-0.774-0.122-1.011-0.367
		c-0.233-0.244-0.353-0.601-0.353-1.07v-4.699h2.396v-0.896h-2.396V53.79h-1.063v1.723h-1.408v0.898h1.408v4.762
		c0,0.729,0.199,1.293,0.601,1.692c0.397,0.399,0.968,0.599,1.707,0.599c0.317,0,0.626-0.047,0.921-0.142
		c0.294-0.097,0.541-0.232,0.739-0.412l-0.375-0.765C175.191,62.276,175.014,62.375,174.809,62.446z"/>
	<polygon fill="#FFFFFF" points="145.541,61.966 142.456,52.906 141.422,52.906 138.293,61.921 135.268,52.906 134.13,52.906 
		137.664,63.39 138.817,63.39 141.902,54.449 144.972,63.39 146.14,63.39 149.674,52.906 148.61,52.906 "/>
	<path fill="#FFFFFF" d="M445.069,17.606c-2.778-2.271-6.743-3.996-11.874-3.665c-4.903,0.315-8.344,2.004-10.843,4.646
		c-2.427,2.567-4.192,6.367-3.923,11.616c0.231,4.577,2.465,8.172,5.107,10.377c2.826,2.354,6.842,3.979,11.823,3.717
		c2.294-0.12,4.454-0.72,6.195-1.549c1.738-0.827,3.345-1.916,4.543-3.201c2.534-2.716,4.249-6.265,4.027-11.513
		C449.932,23.364,447.781,19.825,445.069,17.606z M441.041,29.635c-0.146,2.188-1.059,4.009-2.375,5.163
		c-0.96,0.842-2.118,1.426-3.511,1.549c-4.619,0.406-7.943-3.157-7.589-8.158c0.121-1.698,0.74-3.064,1.549-4.077
		c0.813-1.014,1.909-1.866,3.355-2.221c0.491-0.12,1.099-0.152,1.704-0.155c1.966-0.007,3.597,0.704,4.802,1.911
		C440.26,24.93,441.223,26.946,441.041,29.635z"/>
	<path fill="#FFFFFF" d="M298.447,5.577c0,12.591,0.001,25.323,0,37.792h9.552V0.001h-9.445c-0.187-0.02-0.1,0.142-0.104,0.206
		C298.274,1.926,298.447,3.762,298.447,5.577z"/>
	<path fill="#FFFFFF" d="M158.537,28.035c-0.096,0.276-0.083,0.723-0.362,0.775c-0.236-0.188-0.217-0.515-0.31-0.775
		c-2.984-8.405-6.052-16.851-8.983-25.297h-13.888l-0.053,0.154v40.477h9.242c-0.117-9.39-0.136-19.059-0.207-28.396
		c0-0.089-0.1-0.256,0.052-0.311c0.216,0.223,0.262,0.548,0.361,0.826c3.354,9.271,6.618,18.621,9.964,27.88h6.918
		c3.438-9.283,6.814-18.678,10.223-27.931c0.096-0.262,0.16-0.653,0.465-0.775c-0.07,9.565-0.181,19.096-0.207,28.706h9.553V2.738
		h-14.146C164.305,11.124,161.389,19.718,158.537,28.035z"/>
	<path fill="#FFFFFF" d="M189.616,20.446c0.117,0.12,0.328,0.269,0.31,0.465c-1.321,2.168-2.229,4.711-2.22,8.104
		c0.015,6.251,3.132,10.608,7.383,13.063c2.079,1.2,5.008,2.188,8.002,2.22c3.31,0.035,5.984-0.591,8.364-1.857
		c1.123,0.893,1.977,2.054,3.097,2.941c1.12-1.045,2.385-2.382,3.563-3.563c0.146-0.146,1.194-1.029,1.188-1.188
		c-0.004-0.065-0.535-0.532-0.673-0.67c-0.256-0.256-0.542-0.543-0.671-0.672c-0.396-0.396-1.27-1.005-1.237-1.342
		c0.021-0.224,0.535-0.757,0.671-0.981c1.457-2.436,2.395-5.759,2.013-9.654c-0.376-3.859-1.96-6.71-4.336-9.086
		c-2.221-2.222-5.203-3.704-9.24-4.182c-4.255-0.505-8.038,0.338-10.997,2.116c-1.184-1.105-2.274-2.302-3.459-3.407
		c-1.506,1.31-3.154,3.162-4.75,4.646C187.51,18.472,188.677,19.485,189.616,20.446z M203.504,21.685
		c4.807-0.01,7.88,4.611,6.559,9.603c-0.028,0.231-0.188-0.088-0.258-0.155c-3.005-2.779-5.969-6.017-8.882-8.932
		C201.71,21.919,202.543,21.686,203.504,21.685z M196.947,28.035L197,27.881c2.688,2.765,5.617,5.592,8.263,8.312
		C199.687,37.209,196.546,33.13,196.947,28.035z"/>
	<path fill="#FFFFFF" d="M202.43,55.961c-0.579-0.34-1.233-0.51-1.961-0.51c-0.729,0-1.387,0.17-1.971,0.51
		c-0.584,0.339-1.043,0.813-1.378,1.422c-0.334,0.609-0.501,1.3-0.501,2.067c0,0.767,0.174,1.457,0.523,2.066
		c0.351,0.606,0.836,1.084,1.46,1.43c0.624,0.345,1.34,0.517,2.147,0.517c0.629,0,1.206-0.108,1.729-0.329
		c0.522-0.22,0.96-0.539,1.311-0.959l-0.6-0.688c-0.299,0.34-0.653,0.597-1.063,0.771c-0.409,0.175-0.857,0.263-1.349,0.263
		c-0.868,0-1.587-0.252-2.156-0.756c-0.567-0.505-0.883-1.166-0.941-1.982h6.589l0.016-0.329c0-0.779-0.165-1.472-0.494-2.074
		C203.464,56.772,203.009,56.3,202.43,55.961z M197.683,58.985c0.068-0.777,0.36-1.409,0.876-1.896
		c0.515-0.48,1.149-0.727,1.91-0.727c0.769,0,1.408,0.24,1.924,0.727c0.515,0.484,0.807,1.116,0.876,1.896H197.683z"/>
	<polygon fill="#FFFFFF" points="219.067,62.206 216.552,55.513 215.638,55.513 213.107,62.206 210.637,55.513 209.618,55.513 
		212.583,63.39 213.586,63.39 216.072,56.935 218.559,63.39 219.562,63.39 222.542,55.513 221.568,55.513 "/>
	<path fill="#FFFFFF" d="M401.559,62.446c-0.205,0.068-0.417,0.104-0.637,0.104c-0.439,0-0.776-0.122-1.014-0.367
		c-0.231-0.244-0.352-0.601-0.352-1.07v-4.699h2.396v-0.896h-2.396V53.79h-1.063v1.723h-1.404v0.898h1.404v4.762
		c0,0.729,0.199,1.293,0.603,1.692c0.396,0.399,0.968,0.599,1.707,0.599c0.316,0,0.626-0.047,0.921-0.142
		c0.294-0.097,0.541-0.232,0.741-0.412l-0.375-0.765C401.94,62.276,401.763,62.375,401.559,62.446z"/>
	<path fill="#FFFFFF" d="M229.235,55.961c-0.579-0.34-1.232-0.51-1.962-0.51s-1.385,0.17-1.969,0.51
		c-0.584,0.339-1.043,0.813-1.38,1.422c-0.334,0.609-0.501,1.3-0.501,2.067c0,0.767,0.176,1.457,0.523,2.066
		c0.351,0.606,0.837,1.084,1.461,1.43c0.624,0.345,1.341,0.517,2.148,0.517c0.629,0,1.205-0.108,1.729-0.329
		c0.523-0.22,0.96-0.539,1.312-0.959l-0.601-0.688c-0.301,0.34-0.651,0.597-1.063,0.771c-0.409,0.175-0.857,0.263-1.35,0.263
		c-0.867,0-1.587-0.252-2.154-0.756c-0.569-0.505-0.885-1.166-0.943-1.982h6.591l0.014-0.329c0-0.779-0.162-1.472-0.492-2.074
		C230.269,56.772,229.814,56.3,229.235,55.961z M224.488,58.985c0.07-0.777,0.362-1.409,0.876-1.896
		c0.515-0.48,1.15-0.727,1.909-0.727c0.771,0,1.41,0.24,1.926,0.727c0.514,0.484,0.806,1.116,0.876,1.896H224.488z"/>
	<polygon fill="#FFFFFF" points="396.07,55.513 394.902,55.513 392.535,58.597 390.172,55.513 388.972,55.513 391.938,59.345 
		388.822,63.39 390.021,63.39 392.535,60.094 395.036,63.39 396.252,63.39 393.105,59.345 "/>
	<path fill="#FFFFFF" d="M192.322,57.054v-1.541h-1.019v7.877h1.063v-4.015c0-0.918,0.233-1.632,0.703-2.142s1.118-0.767,1.947-0.767
		l0.255,0.017v-1.032c-0.729,0-1.34,0.136-1.834,0.403C192.944,56.125,192.572,56.524,192.322,57.054z"/>
	<path fill="#FFFFFF" d="M244.061,57.024c-0.33-0.51-0.766-0.898-1.305-1.168c-0.537-0.271-1.145-0.404-1.813-0.404
		c-0.748,0-1.422,0.16-2.021,0.479c-0.599,0.319-1.068,0.771-1.415,1.348c-0.345,0.58-0.517,1.238-0.517,1.979s0.172,1.4,0.517,1.984
		c0.347,0.584,0.819,1.036,1.425,1.36c0.604,0.324,1.273,0.486,2.014,0.486c0.649,0,1.24-0.13,1.775-0.39
		c0.531-0.259,0.965-0.64,1.295-1.138v1.002c0,0.979-0.233,1.701-0.703,2.164c-0.473,0.465-1.204,0.694-2.202,0.694
		c-0.599,0-1.171-0.095-1.714-0.282c-0.545-0.189-1.007-0.455-1.386-0.793l-0.539,0.809c0.407,0.38,0.938,0.677,1.595,0.892
		c0.654,0.214,1.347,0.321,2.074,0.321c1.315,0,2.303-0.321,2.957-0.967c0.652-0.646,0.979-1.635,0.979-2.975V55.51h-1.02
		L244.061,57.024L244.061,57.024z M243.664,60.753c-0.255,0.439-0.609,0.781-1.071,1.025c-0.459,0.244-0.974,0.367-1.542,0.367
		c-0.567,0-1.079-0.123-1.533-0.367c-0.455-0.244-0.811-0.586-1.063-1.025s-0.383-0.938-0.383-1.498c0-0.559,0.128-1.058,0.383-1.497
		c0.255-0.438,0.607-0.778,1.063-1.019c0.454-0.239,0.966-0.359,1.533-0.359c0.578,0,1.098,0.123,1.552,0.367
		c0.454,0.245,0.81,0.584,1.063,1.02c0.254,0.436,0.381,0.933,0.381,1.488C244.045,59.815,243.918,60.313,243.664,60.753z"/>
	<path fill="#FFFFFF" d="M184.924,55.452c-0.617,0-1.208,0.093-1.767,0.277c-0.561,0.185-1.039,0.444-1.438,0.785l0.479,0.795
		c0.329-0.291,0.725-0.52,1.184-0.685s0.938-0.247,1.438-0.247c0.729,0,1.283,0.18,1.662,0.532s0.567,0.87,0.567,1.55v0.479h-2.5
		c-1.06,0-1.828,0.205-2.313,0.615c-0.483,0.407-0.726,0.946-0.726,1.615c0,0.688,0.259,1.243,0.777,1.662
		c0.521,0.42,1.218,0.629,2.098,0.629c0.639,0,1.189-0.113,1.653-0.344c0.464-0.231,0.815-0.551,1.058-0.959v1.229h1.018v-4.883
		c0-1.009-0.274-1.77-0.823-2.283C186.742,55.709,185.953,55.452,184.924,55.452z M187.051,61.022
		c-0.209,0.52-0.527,0.916-0.958,1.188c-0.43,0.272-0.942,0.412-1.542,0.412c-0.629,0-1.116-0.133-1.468-0.396
		c-0.351-0.266-0.522-0.625-0.522-1.086c0-0.938,0.674-1.406,2.021-1.406h2.471L187.051,61.022L187.051,61.022z"/>
	<path fill="#FFFFFF" d="M413.867,53.521c-0.624-0.47-1.46-0.703-2.509-0.703c-1.638,0-2.88,0.521-3.729,1.559l0.794,0.602
		c0.668-0.811,1.622-1.215,2.857-1.215c0.748,0,1.337,0.168,1.77,0.504c0.429,0.334,0.644,0.773,0.644,1.323
		c0,0.409-0.103,0.757-0.307,1.04c-0.205,0.285-0.521,0.616-0.951,0.996c-0.319,0.277-0.579,0.527-0.778,0.749
		c-0.197,0.22-0.365,0.481-0.502,0.793c-0.135,0.312-0.202,0.669-0.202,1.078h1.108c0-0.449,0.104-0.825,0.314-1.13
		c0.21-0.307,0.526-0.651,0.958-1.041c0.316-0.29,0.574-0.547,0.771-0.766c0.194-0.221,0.359-0.485,0.494-0.802
		c0.135-0.315,0.202-0.677,0.202-1.086C414.804,54.624,414.49,53.99,413.867,53.521z"/>
	<path fill="#FFFFFF" d="M411.51,61.921c-0.223,0-0.403,0.072-0.557,0.217c-0.146,0.146-0.225,0.327-0.225,0.547
		c0,0.211,0.075,0.395,0.225,0.547c0.15,0.154,0.334,0.231,0.557,0.231c0.22,0,0.407-0.077,0.563-0.231
		c0.154-0.152,0.231-0.336,0.231-0.547c0-0.22-0.074-0.398-0.228-0.547C411.929,61.994,411.739,61.921,411.51,61.921z"/>
</svg>
