<?xml version="1.0" encoding="utf-8"?>
<!-- Generator: Adobe Illustrator 15.0.0, SVG Export Plug-In . SVG Version: 6.00 Build 0)  -->
<!DOCTYPE svg PUBLIC "-//W3C//DTD SVG 1.1//EN" "http://www.w3.org/Graphics/SVG/1.1/DTD/svg11.dtd">
<svg version="1.1" id="Кавычки_1_" xmlns="http://www.w3.org/2000/svg" xmlns:xlink="http://www.w3.org/1999/xlink" x="0px"
	 y="0px" width="159.18px" height="123.977px" viewBox="0 0 159.18 123.977" enable-background="new 0 0 159.18 123.977"
	 xml:space="preserve">
<g id="Кавычки">
	<g>
		<path fill-rule="evenodd" clip-rule="evenodd" fill="#F6F6F6" d="M123.635,66.326c-0.567-4.383-1.456-16.933,5.338-26.886
			c6.813-9.971,28.608-17.794,28.608-17.794L146.935,0c0,0-27.285,9.056-41.578,27.357c-10.082,12.908-12.33,31.377-12.842,38.969
			h-0.17v57.65h66.835v-57.65H123.635z M36.628,39.44c6.813-9.971,28.607-17.794,28.607-17.794L54.59,0
			c0,0-27.286,9.056-41.578,27.357C2.93,40.266,0.681,58.734,0.17,66.326H0v57.65h66.835v-57.65H31.29
			C30.722,61.943,29.833,49.394,36.628,39.44z"/>
	</g>
</g>
</svg>
