<?xml version="1.0" encoding="utf-8"?>
<!-- Generator: Adobe Illustrator 15.0.0, SVG Export Plug-In . SVG Version: 6.00 Build 0)  -->
<!DOCTYPE svg PUBLIC "-//W3C//DTD SVG 1.1//EN" "http://www.w3.org/Graphics/SVG/1.1/DTD/svg11.dtd">
<svg version="1.1" id="Иконка_1_" xmlns="http://www.w3.org/2000/svg" xmlns:xlink="http://www.w3.org/1999/xlink" x="0px"
	 y="0px" width="59.989px" height="59.989px" viewBox="0 0 59.989 59.989" enable-background="new 0 0 59.989 59.989"
	 xml:space="preserve">
<g id="Иконка">
	<g>
		<path fill-rule="evenodd" clip-rule="evenodd" fill="#FFFFFF" d="M21.644,21.694l13.474,8.213l-9.03,5.567v-9.522h-3.958v16.451
			l20.459-12.492L23.537,18.397L21.644,21.694z M29.994,0C13.429,0,0,13.43,0,29.994c0,16.566,13.429,29.995,29.994,29.995
			s29.995-13.429,29.995-29.995C59.989,13.43,46.559,0,29.994,0z M29.994,56.115c-14.426,0-26.121-11.694-26.121-26.121
			c0-14.426,11.694-26.12,26.121-26.12s26.121,11.694,26.121,26.12C56.115,44.421,44.42,56.115,29.994,56.115z"/>
	</g>
</g>
</svg>
