<?xml version="1.0" encoding="utf-8"?>
<!-- Generator: Adobe Illustrator 15.0.0, SVG Export Plug-In . SVG Version: 6.00 Build 0)  -->
<!DOCTYPE svg PUBLIC "-//W3C//DTD SVG 1.1//EN" "http://www.w3.org/Graphics/SVG/1.1/DTD/svg11.dtd">
<svg version="1.1" id="Заливка_цветом_1_1_"
	 xmlns="http://www.w3.org/2000/svg" xmlns:xlink="http://www.w3.org/1999/xlink" x="0px" y="0px" width="14.923px"
	 height="14.923px" viewBox="0 0 14.923 14.923" enable-background="new 0 0 14.923 14.923" xml:space="preserve">
<g id="Заливка_цветом_1">
	<g>
		<path fill-rule="evenodd" clip-rule="evenodd" fill="#ffffff" d="M14.877,4.386c-0.036-0.794-0.162-1.337-0.347-1.812
			c-0.19-0.49-0.445-0.907-0.86-1.321c-0.415-0.415-0.831-0.67-1.321-0.86c-0.475-0.185-1.018-0.311-1.812-0.348
			C9.742,0.009,9.488,0,7.461,0C5.435,0,5.181,0.009,4.385,0.045C3.591,0.082,3.049,0.208,2.574,0.393
			c-0.491,0.19-0.907,0.445-1.322,0.86c-0.415,0.414-0.67,0.831-0.86,1.321C0.208,3.049,0.081,3.592,0.045,4.386
			C0.009,5.182,0,5.436,0,7.462s0.009,2.28,0.045,3.076c0.036,0.794,0.163,1.337,0.347,1.812c0.19,0.49,0.445,0.906,0.86,1.321
			c0.415,0.414,0.831,0.67,1.322,0.86c0.475,0.185,1.017,0.311,1.811,0.347c0.795,0.037,1.049,0.045,3.076,0.045
			c2.026,0,2.28-0.008,3.076-0.045c0.794-0.036,1.337-0.162,1.812-0.347c0.49-0.19,0.906-0.446,1.321-0.86
			c0.415-0.415,0.67-0.831,0.86-1.321c0.185-0.475,0.311-1.018,0.347-1.812c0.036-0.796,0.046-1.05,0.046-3.076
			S14.914,5.182,14.877,4.386z M13.301,10.361c-0.032,0.699-0.149,1.079-0.247,1.332c-0.131,0.334-0.285,0.573-0.537,0.824
			c-0.25,0.251-0.49,0.406-0.824,0.537c-0.254,0.098-0.633,0.215-1.332,0.247c-0.757,0.034-0.984,0.042-2.899,0.042
			c-1.916,0-2.143-0.008-2.899-0.042c-0.699-0.032-1.079-0.149-1.332-0.247c-0.335-0.131-0.574-0.286-0.825-0.537
			c-0.251-0.251-0.406-0.49-0.537-0.824c-0.098-0.253-0.215-0.633-0.247-1.332C1.587,9.604,1.58,9.377,1.58,7.462
			c0-1.916,0.007-2.143,0.042-2.899C1.653,3.863,1.771,3.483,1.868,3.23c0.131-0.335,0.286-0.574,0.537-0.824
			c0.25-0.252,0.49-0.407,0.825-0.537c0.253-0.098,0.633-0.216,1.332-0.247C5.319,1.588,5.546,1.58,7.461,1.58
			c1.915,0,2.143,0.008,2.899,0.042c0.699,0.031,1.078,0.149,1.332,0.247c0.334,0.13,0.574,0.285,0.824,0.537
			c0.252,0.25,0.406,0.489,0.537,0.824c0.098,0.253,0.215,0.633,0.247,1.332c0.034,0.757,0.042,0.983,0.042,2.899
			C13.343,9.377,13.335,9.604,13.301,10.361z M7.461,3.63c-2.116,0-3.832,1.716-3.832,3.832s1.715,3.831,3.832,3.831
			s3.831-1.715,3.831-3.831S9.578,3.63,7.461,3.63z M7.461,9.854c-1.321,0-2.392-1.071-2.392-2.392c0-1.321,1.07-2.392,2.392-2.392
			s2.392,1.07,2.392,2.392C9.853,8.782,8.783,9.854,7.461,9.854z M11.291,2.642c-0.546,0-0.99,0.443-0.99,0.99s0.444,0.99,0.99,0.99
			c0.547,0,0.99-0.443,0.99-0.99S11.837,2.642,11.291,2.642z"/>
	</g>
</g>
</svg>
