<?xml version="1.0" encoding="utf-8"?>
<!-- Generator: Adobe Illustrator 15.0.0, SVG Export Plug-In . SVG Version: 6.00 Build 0)  -->
<!DOCTYPE svg PUBLIC "-//W3C//DTD SVG 1.1//EN" "http://www.w3.org/Graphics/SVG/1.1/DTD/svg11.dtd">
<svg version="1.1" id="Заливка_цветом_2_1_"
	 xmlns="http://www.w3.org/2000/svg" xmlns:xlink="http://www.w3.org/1999/xlink" x="0px" y="0px" width="14.732px"
	 height="17.813px" viewBox="0 0 14.732 17.813" enable-background="new 0 0 14.732 17.813" xml:space="preserve">
<g id="Заливка_цветом_2">
	<g>
		<path fill-rule="evenodd" clip-rule="evenodd" fill="#595959" d="M7.157,6.73c0.458,0,0.809-0.17,1.054-0.508
			C8.397,5.978,8.489,5.587,8.489,5.05V3.311c0-0.53-0.092-0.918-0.278-1.163C7.966,1.81,7.615,1.641,7.157,1.641
			c-0.444,0-0.792,0.169-1.043,0.507C5.928,2.393,5.835,2.78,5.835,3.311V5.05c0,0.53,0.093,0.921,0.278,1.173
			C6.365,6.561,6.713,6.73,7.157,6.73z M6.73,3.132c0-0.458,0.143-0.687,0.427-0.687c0.285,0,0.428,0.229,0.428,0.687v2.087
			c0,0.465-0.143,0.696-0.428,0.696c-0.285,0-0.427-0.232-0.427-0.696V3.132z M9.891,6.73c0.331,0,0.672-0.206,1.023-0.617V6.66
			h0.904V1.7h-0.904v3.787c-0.199,0.285-0.387,0.428-0.566,0.428c-0.119,0-0.189-0.073-0.209-0.219
			c-0.006-0.014-0.01-0.13-0.01-0.349V1.7H9.225v3.916c0,0.338,0.026,0.587,0.079,0.745C9.391,6.607,9.586,6.73,9.891,6.73z
			 M3.629,3.967V6.66h0.994V3.967L5.826,0H4.812L4.136,2.614L3.43,0H2.376c0.186,0.558,0.401,1.177,0.646,1.859
			C3.334,2.773,3.536,3.477,3.629,3.967z M8.997,11.7c-0.152,0-0.302,0.073-0.447,0.219v2.991c0.146,0.146,0.295,0.219,0.447,0.219
			c0.258,0,0.387-0.222,0.387-0.666v-2.097C9.383,11.922,9.254,11.7,8.997,11.7z M12.296,11.7c-0.298,0-0.447,0.226-0.447,0.676
			v0.457h0.895v-0.457C12.744,11.925,12.594,11.7,12.296,11.7z M14.473,9.205c-0.086-0.392-0.276-0.72-0.571-0.984
			S13.267,7.8,12.883,7.753c-1.22-0.132-3.059-0.198-5.518-0.198c-2.458,0-4.294,0.066-5.507,0.198
			C1.468,7.8,1.127,7.956,0.835,8.221C0.543,8.485,0.352,8.813,0.259,9.205C0.086,9.974,0,11.133,0,12.685
			c0,1.576,0.086,2.736,0.259,3.479c0.086,0.391,0.277,0.719,0.571,0.984c0.295,0.265,0.635,0.417,1.019,0.457
			c1.219,0.139,3.059,0.209,5.517,0.209s4.297-0.07,5.517-0.209c0.384-0.04,0.722-0.192,1.014-0.457
			c0.291-0.266,0.483-0.594,0.576-0.984c0.172-0.769,0.259-1.929,0.259-3.479C14.732,11.106,14.645,9.947,14.473,9.205z
			 M4.205,10.209H3.142v5.656H2.147v-5.656H1.104V9.274h3.101V10.209z M6.889,15.865H6.004v-0.537
			c-0.358,0.404-0.696,0.606-1.014,0.606c-0.305,0-0.497-0.123-0.576-0.368c-0.053-0.159-0.08-0.401-0.08-0.726v-3.887h0.884v3.618
			c0,0.212,0.003,0.328,0.01,0.348c0.02,0.14,0.089,0.209,0.208,0.209c0.179,0,0.368-0.139,0.567-0.417v-3.758h0.885V15.865z
			 M10.268,14.394c0,0.484-0.029,0.815-0.088,0.994c-0.113,0.364-0.349,0.547-0.707,0.547c-0.317,0-0.625-0.183-0.924-0.547v0.478
			H7.665V9.274h0.885v2.157c0.285-0.357,0.593-0.537,0.924-0.537c0.358,0,0.594,0.187,0.707,0.557
			c0.059,0.173,0.088,0.501,0.088,0.984V14.394z M13.628,13.579h-1.779v0.864c0,0.457,0.152,0.686,0.458,0.686
			c0.218,0,0.351-0.118,0.396-0.357c0.014-0.066,0.02-0.269,0.02-0.606h0.905v0.129c0,0.325-0.007,0.518-0.021,0.577
			c-0.02,0.179-0.088,0.357-0.208,0.536c-0.239,0.352-0.597,0.527-1.073,0.527c-0.457,0-0.815-0.17-1.074-0.507
			c-0.191-0.245-0.288-0.63-0.288-1.153v-1.72c0-0.523,0.093-0.908,0.278-1.153c0.258-0.338,0.613-0.507,1.064-0.507
			c0.443,0,0.795,0.169,1.053,0.507c0.18,0.245,0.269,0.63,0.269,1.153V13.579z"/>
	</g>
</g>
</svg>
