<?xml version="1.0" encoding="utf-8"?>
<!-- Generator: Adobe Illustrator 15.0.0, SVG Export Plug-In . SVG Version: 6.00 Build 0)  -->
<!DOCTYPE svg PUBLIC "-//W3C//DTD SVG 1.1//EN" "http://www.w3.org/Graphics/SVG/1.1/DTD/svg11.dtd">
<svg version="1.1" id="_x32__1_" opacity="0.302" xmlns="http://www.w3.org/2000/svg" xmlns:xlink="http://www.w3.org/1999/xlink"
	 x="0px" y="0px" width="30.8px" height="30.8px" viewBox="0 0 30.8 30.8" enable-background="new 0 0 30.8 30.8"
	 xml:space="preserve">
<g id="_x32_">
	<g>
		<path fill-rule="evenodd" clip-rule="evenodd" fill="#FFFFFF" d="M15.4,0C6.895,0,0,6.895,0,15.4C0,23.905,6.895,30.8,15.4,30.8
			c8.506,0,15.4-6.895,15.4-15.399C30.8,6.895,23.906,0,15.4,0z M15.4,28.645c-7.314,0-13.244-5.931-13.244-13.244
			c0-7.314,5.93-13.244,13.244-13.244S28.644,8.086,28.644,15.4C28.644,22.714,22.714,28.645,15.4,28.645z M15.4,8.381
			c-3.876,0-7.02,3.143-7.02,7.02s3.143,7.019,7.02,7.019c3.877,0,7.02-3.142,7.02-7.019S19.277,8.381,15.4,8.381z"/>
	</g>
</g>
</svg>
