<?xml version="1.0" encoding="utf-8"?>
<!-- Generator: Adobe Illustrator 15.0.0, SVG Export Plug-In . SVG Version: 6.00 Build 0)  -->
<!DOCTYPE svg PUBLIC "-//W3C//DTD SVG 1.1//EN" "http://www.w3.org/Graphics/SVG/1.1/DTD/svg11.dtd">
<svg version="1.1" id="Корзина_1_" xmlns="http://www.w3.org/2000/svg" xmlns:xlink="http://www.w3.org/1999/xlink" x="0px"
	 y="0px" width="24px" height="24px" viewBox="0 0 24 24" enable-background="new 0 0 24 24" xml:space="preserve">
<g id="Корзина">
	<g>
		<path fill-rule="evenodd" clip-rule="evenodd" d="M7.2,19.2c-1.32,0-2.4,1.08-2.4,2.399c0,1.32,1.08,2.4,2.4,2.4
			c1.32,0,2.4-1.08,2.4-2.4C9.6,20.28,8.52,19.2,7.2,19.2z M8.52,13.2h8.88c0.959,0,1.68-0.48,2.039-1.2l4.32-7.8
			C24,3.96,24,3.84,24,3.6c0-0.72-0.48-1.2-1.2-1.2H5.04L3.96,0H0v2.399h2.4l4.32,9.12L5.04,14.4C4.92,14.76,4.8,15.24,4.8,15.6
			c0,1.32,1.08,2.4,2.4,2.4h14.4v-2.4H7.68c-0.12,0-0.24-0.12-0.24-0.239v-0.12L8.52,13.2z M19.2,19.2c-1.32,0-2.4,1.08-2.4,2.399
			c0,1.32,1.08,2.4,2.4,2.4c1.319,0,2.399-1.08,2.399-2.4C21.6,20.28,20.52,19.2,19.2,19.2z"/>
	</g>
</g>
</svg>
