<?xml version="1.0" encoding="utf-8"?>
<!-- Generator: Adobe Illustrator 15.0.0, SVG Export Plug-In . SVG Version: 6.00 Build 0)  -->
<!DOCTYPE svg PUBLIC "-//W3C//DTD SVG 1.1//EN" "http://www.w3.org/Graphics/SVG/1.1/DTD/svg11.dtd">
<svg version="1.1" id="_x32__1_" xmlns="http://www.w3.org/2000/svg" xmlns:xlink="http://www.w3.org/1999/xlink" x="0px" y="0px"
	 width="19px" height="18.999px" viewBox="0 0 19 18.999" enable-background="new 0 0 19 18.999" xml:space="preserve">
<g id="_x32_">
	<g>
		<path fill-rule="evenodd" clip-rule="evenodd" fill="#FFFFFF" d="M5.7,15.199c-1.045,0-1.9,0.855-1.9,1.9s0.855,1.899,1.9,1.899
			c1.045,0,1.9-0.854,1.9-1.899S6.745,15.199,5.7,15.199z M15.2,15.199c-1.046,0-1.9,0.855-1.9,1.9s0.854,1.899,1.9,1.899
			c1.045,0,1.899-0.854,1.899-1.899S16.245,15.199,15.2,15.199z M6.745,10.45h7.03c0.76,0,1.33-0.381,1.615-0.951l3.42-6.175
			C19,3.135,19,3.039,19,2.85c0-0.57-0.38-0.95-0.95-0.95H3.99L3.135,0H0v1.899h1.9L5.32,9.12l-1.33,2.279
			c-0.095,0.285-0.19,0.665-0.19,0.95c0,1.045,0.855,1.9,1.9,1.9h11.4v-1.9H6.08c-0.095,0-0.19-0.095-0.19-0.19v-0.095L6.745,10.45z
			"/>
	</g>
</g>
</svg>
