<?xml version="1.0" encoding="utf-8"?>
<!-- Generator: Adobe Illustrator 15.0.0, SVG Export Plug-In . SVG Version: 6.00 Build 0)  -->
<!DOCTYPE svg PUBLIC "-//W3C//DTD SVG 1.1//EN" "http://www.w3.org/Graphics/SVG/1.1/DTD/svg11.dtd">
<svg version="1.1" id="Крестик_1_" xmlns="http://www.w3.org/2000/svg" xmlns:xlink="http://www.w3.org/1999/xlink" x="0px"
	 y="0px" width="22.988px" height="22.994px" viewBox="0 0 22.988 22.994" enable-background="new 0 0 22.988 22.994"
	 xml:space="preserve">
<g id="Крестик">
	<g>
		<path fill-rule="evenodd" clip-rule="evenodd" fill="#2b2b2b" d="M13.083,11.489l9.569-9.571c0.446-0.43,0.446-1.148,0-1.595
			c-0.431-0.431-1.147-0.431-1.579,0l-9.586,9.586l-9.57-9.586c-0.446-0.431-1.148-0.431-1.595,0c-0.431,0.446-0.431,1.164,0,1.595
			l9.57,9.571l-9.57,9.586c-0.431,0.43-0.431,1.148,0,1.595c0.446,0.432,1.148,0.432,1.595,0l9.57-9.586l9.586,9.586
			c0.43,0.432,1.148,0.432,1.579,0c0.446-0.446,0.446-1.163,0-1.595L13.083,11.489z"/>
	</g>
</g>
</svg>
