<?xml version="1.0" encoding="utf-8"?>
<!-- Generator: Adobe Illustrator 15.0.0, SVG Export Plug-In . SVG Version: 6.00 Build 0)  -->
<!DOCTYPE svg PUBLIC "-//W3C//DTD SVG 1.1//EN" "http://www.w3.org/Graphics/SVG/1.1/DTD/svg11.dtd">
<svg version="1.1" id="Логотип_1_" xmlns="http://www.w3.org/2000/svg" xmlns:xlink="http://www.w3.org/1999/xlink" x="0px" y="0px" width="888.542px" height="57.259px" 	viewBox="0 0 888.542 57.259" enable-background="new 0 0 888.542 57.259"
	 xml:space="preserve">
	<g id="Логотип">
		<g>
			<path fill-rule="evenodd" clip-rule="evenodd" fill="#FFFFFF" d="M883.085,27.904c-4.037-3.371-9.178-4.858-14.318-5.406
				c-2.758-0.298-5.545-0.469-8.313-0.619c-3.564-0.202-11.444-0.759-14.462-2.85c-0.634-0.461-1.287-1.051-1.691-1.746
				c-0.336-0.587-0.499-1.219-0.499-1.896c0-2.231,1.7-3.68,3.517-4.685c2.998-1.657,6.602-2.145,9.984-2.145
				c3.931,0,7.764,0.629,11.483,1.893c3.853,1.31,7.408,3.262,10.686,5.676l0.97,0.719l5.603-7.387l-1.066-0.726
				c-4.142-2.825-8.648-5.03-13.434-6.527C866.883,0.745,862.078,0,857.196,0c-5.746,0-11.675,1.035-16.527,4.281
				c-4.064,2.705-6.65,6.422-6.65,11.397c0,2.553,0.76,4.901,2.287,6.955c1.644,2.224,3.998,3.793,6.497,4.917
				c5.141,2.14,13.933,2.772,19.448,3.127c1.432,0.073,2.864,0.149,4.276,0.289c3.085,0.231,6.563,0.908,9.119,2.739
				c1.874,1.306,3.009,3.008,3.009,5.322c0,3.115-1.769,5.275-4.334,6.892c-3.547,2.229-7.977,2.882-12.099,2.882
				c-4.257,0-8.437-0.807-12.444-2.21c-4.372-1.518-8.437-3.729-12.175-6.419l-0.99-0.711l-5.563,7.62l1.009,0.721
				c4.344,3.094,9.081,5.535,14.184,7.121c5.198,1.643,10.638,2.335,16.086,2.335c6.544,0,13.29-1.192,18.786-4.95
				c4.604-3.151,7.428-7.428,7.428-13.088C888.542,34.619,886.592,30.852,883.085,27.904z M119.98,1.148L90.924,55.885h10.315
				l7.479-14.068h29.837l7.704,14.068h10.407L127.297,1.148H119.98z M113.268,33.264l10.375-19.354l10.451,19.354H113.268z
				 M30.63,32.289L8.367,1.148H0v54.736h9.381V17.6l21.246,29.252L51.873,17.6v38.285h9.418V1.148h-8.259L30.63,32.289z
				 M235.208,27.467c2.725-2.979,4.017-6.53,4.017-10.558c0-4.635-1.552-8.664-5.18-11.621c-3.867-3.171-8.917-4.14-13.804-4.14
				h-33.69v54.736h9.468v-22.88h20.059l14.167,22.88h10.667l-14.4-23.352C229.858,31.696,232.821,30.077,235.208,27.467z
				 M196.019,24.449V9.609h24.119c2.396,0,5.045,0.414,6.936,2.009c1.694,1.415,2.313,3.313,2.313,5.484
				c0,2.139-0.569,4.067-2.287,5.427c-1.96,1.569-4.891,1.92-7.313,1.92H196.019z M700.007,8.104C693.886,2.396,686.371,0,678.087,0
				c-8.234,0-15.721,2.401-21.813,8.072c-5.938,5.523-8.706,12.487-8.706,20.574c0,8.067,2.768,15.015,8.667,20.539
				c6.093,5.68,13.589,8.073,21.852,8.073c8.313,0,15.827-2.383,21.958-8.073c5.938-5.515,8.726-12.453,8.726-20.539
				C708.771,20.552,705.965,13.62,700.007,8.104z M693.06,43.026c-4.161,3.988-9.244,5.68-14.973,5.68
				c-5.717,0-10.81-1.691-14.961-5.68c-4.074-3.911-5.881-8.772-5.881-14.38c0-5.606,1.816-10.46,5.881-14.384
				c4.151-3.992,9.234-5.704,14.961-5.704c5.729,0,10.85,1.669,14.991,5.672c4.056,3.92,5.862,8.797,5.862,14.416
				C698.94,34.254,697.134,39.115,693.06,43.026z M496.903,1.148l-29.06,54.736h10.312l7.485-14.068h29.837l7.707,14.068h10.397
				L504.216,1.148H496.903z M490.186,33.264l10.378-19.354l10.446,19.354H490.186z M609.149,37.377
				c-1.998,3.479-4.641,6.418-8.119,8.456c-3.459,2.008-7.256,2.873-11.243,2.873c-5.728,0-10.811-1.691-14.962-5.68
				c-4.074-3.911-5.881-8.772-5.881-14.38c0-5.606,1.816-10.46,5.881-14.384c4.151-3.994,9.234-5.704,14.962-5.704
				c3.748,0,7.351,0.769,10.676,2.513c3.056,1.606,5.478,3.87,7.198,6.865l0.643,1.127l8.034-5.28l-0.711-1.027
				c-2.825-4.104-6.516-7.263-10.993-9.462C599.982,1.005,594.967,0,589.787,0c-8.235,0-15.721,2.398-21.813,8.072
				c-5.938,5.523-8.705,12.487-8.705,20.574c0,8.067,2.767,15.015,8.667,20.539c6.102,5.68,13.578,8.073,21.852,8.073
				c5.612,0,11.032-1.145,15.98-3.815c4.747-2.575,8.466-6.275,11.146-10.964l0.558-0.981l-7.658-5.266L609.149,37.377z
				 M430.824,36.232c0,3.037-0.351,7.765-2.838,9.927c-2.599,2.258-8.129,2.547-11.387,2.547c-3.676,0-9.234-0.269-12.514-2.124
				c-2.436-1.374-3.406-3.527-3.406-6.274v-9.375h-9.471V40.5c0,5.217,1.775,9.715,6.155,12.712
				c4.941,3.373,12.146,4.047,17.96,4.047c6.013,0,14.047-0.645,19.01-4.439c4.641-3.547,5.96-9.265,5.96-14.847V1.148h-9.47V36.232z
				 M792.247,24.85c1.076-0.917,1.96-2.013,2.643-3.282c1.048-1.906,1.48-4.016,1.48-6.18c0-4.243-1.336-8.062-4.767-10.69
				c-3.7-2.849-8.831-3.549-13.367-3.549h-34.728v54.736h36.506c5.275,0,10.608-1.096,14.77-4.517
				c3.872-3.191,5.603-7.458,5.603-12.436c0-3.142-0.788-6.097-2.519-8.725C796.417,28.005,794.457,26.253,792.247,24.85z
				 M752.974,9.609h25.869c1.998,0,4.525,0.271,6.13,1.572c1.413,1.138,1.825,2.852,1.825,4.596c0,1.751-0.499,3.297-1.902,4.408
				c-1.643,1.304-4.017,1.611-6.053,1.611h-25.869V9.609z M788.163,45.122c-1.845,1.759-4.276,2.307-6.765,2.307h-28.425V30.256
				h28.425c2.488,0,4.92,0.566,6.765,2.315c1.749,1.672,2.383,3.873,2.383,6.265C790.546,41.22,789.932,43.449,788.163,45.122z
				 M319.816,37.377c-2.006,3.479-4.646,6.418-8.122,8.456c-3.457,2.008-7.253,2.873-11.24,2.873c-5.725,0-10.811-1.691-14.969-5.68
				c-4.07-3.911-5.876-8.772-5.876-14.38c0-5.606,1.816-10.46,5.879-14.384c4.153-3.992,9.234-5.704,14.967-5.704
				c3.745,0,7.349,0.769,10.674,2.513c3.053,1.606,5.481,3.87,7.194,6.862l0.648,1.13l8.033-5.28l-0.711-1.027
				c-2.827-4.104-6.52-7.263-10.993-9.462C310.643,1.005,305.631,0,300.454,0c-8.236,0-15.726,2.401-21.816,8.072
				c-5.941,5.523-8.708,12.487-8.708,20.574c0,8.067,2.763,15.015,8.673,20.539c6.094,5.68,13.575,8.073,21.852,8.073
				c5.604,0,11.024-1.145,15.975-3.815c4.748-2.575,8.472-6.275,11.147-10.964l0.558-0.981l-7.656-5.266L319.816,37.377z"/>
		</g>
	</g>
</svg>
