<?xml version="1.0" encoding="utf-8"?>
<!-- Generator: Adobe Illustrator 15.0.0, SVG Export Plug-In . SVG Version: 6.00 Build 0)  -->
<!DOCTYPE svg PUBLIC "-//W3C//DTD SVG 1.1//EN" "http://www.w3.org/Graphics/SVG/1.1/DTD/svg11.dtd">
<svg version="1.1" id="Фигура_1_1_" xmlns="http://www.w3.org/2000/svg" xmlns:xlink="http://www.w3.org/1999/xlink" x="0px"
	 y="0px" width="54.006px" height="54.005px" viewBox="0 0 54.006 54.005" enable-background="new 0 0 54.006 54.005"
	 xml:space="preserve">
<g id="Фигура_1">
	<g>
		<path fill-rule="evenodd" clip-rule="evenodd" fill="#1a1a1a" d="M41.669,38.235c3.391-4.176,5.247-9.391,5.247-14.776
			C46.916,10.523,36.394,0,23.459,0C10.524,0,0,10.523,0,23.459c0,12.934,10.524,23.457,23.459,23.457
			c5.388,0,10.602-1.856,14.776-5.248l12.338,12.337l3.433-3.433L41.669,38.235z M23.446,42.058
			c-10.248,0-18.585-8.344-18.585-18.599c0-10.249,8.337-18.587,18.585-18.587c10.249,0,18.587,8.338,18.587,18.587
			C42.033,33.714,33.694,42.058,23.446,42.058z"/>
	</g>
</g>
</svg>
