<?xml version="1.0" encoding="utf-8"?>
<!-- Generator: Adobe Illustrator 15.0.0, SVG Export Plug-In . SVG Version: 6.00 Build 0)  -->
<!DOCTYPE svg PUBLIC "-//W3C//DTD SVG 1.1//EN" "http://www.w3.org/Graphics/SVG/1.1/DTD/svg11.dtd">
<svg version="1.1" xmlns="http://www.w3.org/2000/svg" xmlns:xlink="http://www.w3.org/1999/xlink" x="0px" y="0px"
	 width="390.967px" height="39.415px" viewBox="0 0 390.967 39.415" enable-background="new 0 0 390.967 39.415"
	 xml:space="preserve">
<g id="_x31__1_" enable-background="new    ">
	<g id="_x31_">
		<g>
			<path fill-rule="evenodd" clip-rule="evenodd" fill="#DF0000" d="M35.939,1.731L18.583,19.086h34.712L70.652,1.731H35.939z
				 M72.388,1.731L55.031,19.086h34.712L107.1,1.731H72.388z M0,37.669h34.712l17.356-17.355H17.356L0,37.669z"/>
		</g>
	</g>
</g>
<g id="_x32__1_" enable-background="new    ">
	<g id="_x32_">
		<g>
			<polygon fill-rule="evenodd" clip-rule="evenodd" fill="#2B2B2B" points="53.804,20.314 36.448,37.669 71.161,37.669 
				88.517,20.314 			"/>
		</g>
	</g>
</g>
<g id="_x33__1_" enable-background="new    ">
	<g id="_x33_">
		<g>
			<path fill-rule="evenodd" clip-rule="evenodd" d="M213.877,0.136c0,5.111,0,10.223,0,15.335c-1.428-1.343-3.229-2.8-5.695-3.185
				c-2.777-0.434-5.506,0.146-7.443,1.256c-3.563,2.042-6.291,6.17-6.232,11.703c0.055,5.235,2.396,9.391,5.785,11.479
				c1.828,1.127,4.336,1.828,6.949,1.614c2.56-0.209,4.761-1.146,6.144-2.511c0.322-0.317,0.599-0.746,0.853-1.076
				c0.064-0.084,0.158-0.289,0.313-0.27c0,1.062,0,2.123,0,3.184c2.511,0,5.021,0,7.532,0c0-12.555,0-25.109,0-37.664
				c-2.72,0-5.439,0-8.16,0L213.877,0.136z M214.237,25.694c-0.201,2.998-2.428,5.602-5.202,5.874
				c-3.239,0.317-5.155-1.396-6.054-3.587c-0.33-0.808-0.582-1.61-0.582-2.825c0-2.109,0.87-3.902,2.063-4.933
				c0.816-0.706,2.121-1.326,3.721-1.346c1.885-0.021,3.226,0.722,4.216,1.75C213.467,21.738,214.39,23.393,214.237,25.694z
				 M259.21,0.181c-0.149,1.492,0,3.086,0,4.662c0,10.935,0.001,21.994,0,32.822c2.766,0,5.53,0,8.296,0c0-12.555,0-25.109,0-37.664
				c-2.735,0-5.471,0-8.206,0C259.141-0.016,259.216,0.125,259.21,0.181z M137.694,24.349c-0.083,0.24-0.072,0.627-0.314,0.673
				c-0.207-0.164-0.188-0.447-0.269-0.673c-2.592-7.301-5.255-14.635-7.802-21.972c-4.021,0-8.041,0-12.062,0l-0.045,0.135
				c0,11.719,0,23.436,0,35.153c2.675,0,5.351,0,8.026,0c-0.101-8.153-0.116-16.552-0.179-24.661c0-0.077-0.085-0.222,0.044-0.27
				c0.188,0.193,0.227,0.477,0.314,0.718c2.914,8.052,5.75,16.172,8.654,24.213c2.003,0,4.006,0,6.008,0
				c2.988-8.062,5.92-16.222,8.878-24.258c0.083-0.227,0.14-0.566,0.404-0.673c-0.063,8.308-0.156,16.585-0.179,24.931
				c2.765,0,5.53,0,8.295,0c0-11.763,0-23.525,0-35.288c-4.095,0-8.191,0-12.286,0C142.704,9.661,140.171,17.125,137.694,24.349z
				 M339.295,4.798c-1.687-1.162-3.81-1.797-6.233-2.151c-2.494-0.365-5.252-0.27-8.07-0.27c-2.779,0-5.61,0-8.386,0
				c-0.057,0.019-0.092,0.058-0.089,0.135c0,11.719,0,23.436,0,35.153c2.854,0,5.709,0,8.564,0
				c0.029-4.408-0.061-8.938,0.044-13.272c5.77,0.261,10.778-0.276,14.08-2.601c1.521-1.071,2.925-2.708,3.587-4.752
				c0.663-2.047,0.758-5.072,0.045-7.443C342.215,7.525,340.887,5.897,339.295,4.798z M334.498,14.977
				c-1.126,2.819-5.51,2.714-9.416,2.601c0-2.72,0-5.44,0-8.16l0.044-0.135c4.041-0.001,8.321-0.386,9.416,2.511
				C334.914,12.778,334.841,14.117,334.498,14.977z M190.561,23.721c-0.327-3.352-1.702-5.828-3.767-7.892
				c-1.929-1.929-4.52-3.217-8.026-3.632c-3.696-0.438-6.982,0.294-9.551,1.838c-1.028-0.96-1.977-1.999-3.004-2.959
				c-1.309,1.138-2.741,2.747-4.125,4.035c0.771,0.932,1.785,1.812,2.601,2.646c0.103,0.104,0.286,0.233,0.27,0.404
				c-1.149,1.883-1.935,4.091-1.928,7.039c0.012,5.428,2.72,9.213,6.412,11.345c1.806,1.042,4.348,1.9,6.95,1.928
				c2.873,0.03,5.197-0.514,7.264-1.614c0.975,0.773,1.715,1.782,2.69,2.556c0.973-0.908,2.07-2.069,3.094-3.094
				c0.125-0.126,1.037-0.895,1.031-1.031c-0.002-0.058-0.464-0.465-0.583-0.583c-0.222-0.222-0.471-0.471-0.583-0.583
				c-0.343-0.344-1.102-0.873-1.076-1.165c0.018-0.192,0.466-0.656,0.583-0.853C190.078,29.991,190.891,27.104,190.561,23.721z
				 M171.055,24.349l0.045-0.135c2.335,2.401,4.878,4.857,7.174,7.219C173.435,32.318,170.706,28.774,171.055,24.349z
				 M182.445,27.173c-0.026,0.201-0.162-0.076-0.225-0.135c-2.608-2.413-5.183-5.226-7.712-7.757
				c0.684-0.245,1.407-0.447,2.242-0.448C180.923,18.826,183.594,22.838,182.445,27.173z M285.263,12.063
				c-2.622,0.139-4.923,0.926-6.726,2.063c-3.44,2.169-5.83,6.079-5.83,11.389c0,2.705,0.67,4.988,1.793,6.86
				c2.143,3.569,6.15,5.941,11.166,6.099c5.726,0.18,9.467-1.795,11.972-5.291c-1.891-1.188-3.796-2.361-5.649-3.587
				c-0.441,0.392-0.77,0.883-1.255,1.256c-1.095,0.838-2.554,1.377-4.351,1.345c-3.086-0.055-5.45-1.96-5.828-4.664
				c5.993,0,11.987,0,17.98,0c0.329-4.906-0.733-8.719-2.959-11.344C293.42,13.645,290.115,11.805,285.263,12.063z M280.555,22.42
				c0.253-2.649,2.361-4.497,5.066-4.708c3.344-0.26,5.26,1.568,5.426,4.708C287.549,22.42,284.052,22.42,280.555,22.42z
				 M386.557,15.291c-2.413-1.973-5.857-3.47-10.313-3.183c-4.259,0.273-7.247,1.74-9.417,4.035
				c-2.108,2.229-3.642,5.53-3.407,10.089c0.203,3.976,2.142,7.098,4.438,9.013c2.455,2.045,5.939,3.455,10.269,3.229
				c1.992-0.104,3.869-0.625,5.381-1.346c1.51-0.718,2.905-1.664,3.946-2.78c2.2-2.357,3.69-5.44,3.497-9.998
				C390.78,20.292,388.913,17.218,386.557,15.291z M383.059,25.739c-0.127,1.899-0.919,3.481-2.063,4.483
				c-0.834,0.731-1.843,1.239-3.05,1.346c-4.012,0.354-6.901-2.742-6.591-7.085c0.105-1.475,0.643-2.662,1.346-3.541
				c0.703-0.881,1.657-1.621,2.914-1.929c0.427-0.105,0.953-0.133,1.479-0.136c1.707-0.005,3.124,0.612,4.17,1.66
				C382.379,21.652,383.215,23.403,383.059,25.739z M353.958,16.098c-0.054,0.087-0.075,0.358-0.269,0.313c0-1.18,0-2.361,0-3.541
				c-2.631,0-5.262,0-7.892,0c0,8.265,0,16.53,0,24.795c2.735,0,5.47,0,8.205,0c0-2.071,0-4.273,0-6.456
				c0.001-2.229-0.139-4.468,0-6.502c0.242-3.543,2.876-5.664,6.726-5.381c0.375,0.027,0.777,0.147,1.211,0.225
				c0.074-2.408,0.273-4.929,0.314-7.22C358.059,11.503,355.457,13.682,353.958,16.098z M244.593,22.734
				c0,1.788,0.104,3.44-0.135,4.798c-0.241,1.365-0.813,2.502-1.704,3.229c-0.813,0.663-2.382,1.141-3.855,0.673
				c-2.952-0.936-2.377-5.787-2.377-9.685c0-3.133,0-6.062,0-8.878c-2.736,0-5.471,0-8.206,0l-0.045,0.134
				c0.001,3.496,0,7.276,0,10.94c0,1.873-0.063,3.742,0.045,5.426c0.31,4.843,3.03,8.412,7.533,8.923
				c3.428,0.39,6.306-0.757,8.071-2.735c0.379-0.425,0.563-0.889,0.941-1.3c0,1.136,0,2.271,0,3.407c2.631,0,5.262,0,7.893,0
				c0-8.265,0-16.53,0-24.795c-2.721,0-5.441,0-8.161,0C244.593,15.758,244.592,19.271,244.593,22.734z"/>
		</g>
	</g>
</g>
</svg>
