<?xml version="1.0" encoding="utf-8"?>
<!-- Generator: Adobe Illustrator 15.0.0, SVG Export Plug-In . SVG Version: 6.00 Build 0)  -->
<!DOCTYPE svg PUBLIC "-//W3C//DTD SVG 1.1//EN" "http://www.w3.org/Graphics/SVG/1.1/DTD/svg11.dtd">
<svg version="1.1" id="Заливка_цветом_3_1_"
	 xmlns="http://www.w3.org/2000/svg" xmlns:xlink="http://www.w3.org/1999/xlink" x="0px" y="0px" width="13.603px"
	 height="11.677px" viewBox="0 0 13.603 11.677" enable-background="new 0 0 13.603 11.677" xml:space="preserve">
<g id="Заливка_цветом_3">
	<g>
		<path fill-rule="evenodd" clip-rule="evenodd" fill="#7f0012" d="M2.237,4.091c1.834,1.272,3.387,2.35,3.387,2.35
			c0.152,0.106,0.635,0.483,1.129,0.486c0.526,0.004,1.065-0.373,1.226-0.486c0,0,1.554-1.077,3.388-2.35
			c1.171-0.813,1.795-1.345,2.059-1.914c0.508-1.096-0.224-1.886-0.309-1.954c-0.354-0.287-1.139-0.215-1.139-0.215H1.625
			c0,0-0.785-0.072-1.139,0.215C0.401,0.292-0.33,1.082,0.178,2.177C0.442,2.747,1.065,3.278,2.237,4.091z M8.272,8.153
			C8.071,8.293,7.397,8.765,6.74,8.76C6.123,8.756,5.519,8.285,5.33,8.153c0,0-1.941-1.348-4.234-2.938
			C0.688,4.932,0.335,4.676,0.029,4.44v6.091c0,0.634,0.513,1.146,1.146,1.146h11.282c0.634,0,1.146-0.513,1.146-1.146V4.417
			c-0.313,0.243-0.675,0.506-1.096,0.798C10.214,6.805,8.272,8.153,8.272,8.153z"/>
	</g>
</g>
</svg>
