<?xml version="1.0" encoding="utf-8"?>
<!-- Generator: Adobe Illustrator 15.0.0, SVG Export Plug-In . SVG Version: 6.00 Build 0)  -->
<!DOCTYPE svg PUBLIC "-//W3C//DTD SVG 1.1//EN" "http://www.w3.org/Graphics/SVG/1.1/DTD/svg11.dtd">
<svg version="1.1" id="Иконка_1_" xmlns="http://www.w3.org/2000/svg" xmlns:xlink="http://www.w3.org/1999/xlink" x="0px"
	 y="0px" width="65.113px" height="67.889px" viewBox="0 0 65.113 67.889" enable-background="new 0 0 65.113 67.889"
	 xml:space="preserve">
<g id="Иконка">
	<g>
		<path fill-rule="evenodd" clip-rule="evenodd" fill="#1a1a1a" d="M64.75,17.568l-13.325-16.9C51.09,0.247,50.597,0,50.06,0H15.068
			c-0.537,0-1.032,0.247-1.366,0.668l-13.324,16.9C0.131,17.872,0,18.251,0,18.642v47.503c0,0.959,0.783,1.744,1.744,1.744h61.624
			c0.961,0,1.744-0.785,1.744-1.744V18.642C65.128,18.251,64.997,17.872,64.75,17.568z M34.308,3.486h14.908L60.014,17.19H34.308
			V3.486z M15.911,3.486h14.908V17.19H5.114L15.911,3.486z M61.625,64.401H3.487V20.677h58.138V64.401z M27.914,50.103
			c0.334,0.334,0.784,0.509,1.234,0.509c0.451,0,0.887-0.175,1.234-0.509l12.904-12.904c0.684-0.683,0.684-1.787,0-2.47
			c-0.668-0.697-1.772-0.697-2.456-0.014L29.148,46.397l-4.854-4.854c-0.683-0.682-1.787-0.682-2.47,0
			c-0.684,0.684-0.684,1.787,0,2.471L27.914,50.103z"/>
	</g>
</g>
</svg>
