<?xml version="1.0" encoding="utf-8"?>
<!-- Generator: Adobe Illustrator 15.0.0, SVG Export Plug-In . SVG Version: 6.00 Build 0)  -->
<!DOCTYPE svg PUBLIC "-//W3C//DTD SVG 1.1//EN" "http://www.w3.org/Graphics/SVG/1.1/DTD/svg11.dtd">
<svg version="1.1" id="_x32__1_" xmlns="http://www.w3.org/2000/svg" xmlns:xlink="http://www.w3.org/1999/xlink" x="0px" y="0px"
	 width="22.346px" height="22.346px" viewBox="0 0 22.346 22.346" enable-background="new 0 0 22.346 22.346" xml:space="preserve">
<g id="_x32_">
	<g>
		<path fill-rule="evenodd" clip-rule="evenodd" fill="#a77c36" d="M22.278,6.567c-0.053-1.189-0.242-2.002-0.519-2.713
			c-0.285-0.734-0.667-1.357-1.288-1.979s-1.245-1.004-1.979-1.289c-0.711-0.276-1.522-0.465-2.712-0.52
			C14.588,0.014,14.208,0,11.173,0S7.758,0.014,6.566,0.067c-1.189,0.055-2.001,0.243-2.712,0.52
			C3.12,0.872,2.496,1.255,1.875,1.876C1.254,2.497,0.872,3.12,0.587,3.854c-0.276,0.711-0.465,1.523-0.52,2.713
			C0.013,7.758,0,8.14,0,11.174s0.013,3.414,0.067,4.605c0.054,1.19,0.244,2.002,0.52,2.713c0.285,0.734,0.667,1.357,1.289,1.979
			c0.621,0.62,1.244,1.002,1.979,1.288c0.711,0.276,1.522,0.466,2.712,0.52c1.191,0.055,1.572,0.066,4.606,0.066
			s3.416-0.012,4.607-0.066c1.189-0.054,2.001-0.243,2.712-0.52c0.734-0.286,1.358-0.668,1.979-1.288
			c0.621-0.622,1.003-1.245,1.288-1.979c0.276-0.711,0.466-1.522,0.519-2.713c0.055-1.191,0.068-1.571,0.068-4.605
			S22.333,7.758,22.278,6.567z M19.918,15.515c-0.049,1.048-0.224,1.615-0.371,1.995c-0.194,0.501-0.427,0.859-0.803,1.235
			c-0.376,0.375-0.734,0.608-1.236,0.804c-0.378,0.146-0.947,0.321-1.994,0.369c-1.133,0.053-1.473,0.063-4.341,0.063
			s-3.208-0.01-4.341-0.063c-1.047-0.048-1.616-0.223-1.995-0.369c-0.501-0.195-0.859-0.429-1.235-0.804
			c-0.376-0.376-0.608-0.734-0.804-1.235c-0.147-0.38-0.322-0.947-0.37-1.995c-0.052-1.133-0.063-1.473-0.063-4.341
			c0-2.869,0.011-3.209,0.063-4.342c0.048-1.047,0.223-1.616,0.37-1.995c0.195-0.501,0.428-0.859,0.804-1.234
			c0.376-0.376,0.734-0.609,1.235-0.804c0.378-0.147,0.947-0.323,1.995-0.37c1.133-0.052,1.473-0.063,4.341-0.063
			c2.869,0,3.208,0.012,4.341,0.063c1.047,0.047,1.616,0.223,1.994,0.37c0.502,0.194,0.86,0.428,1.236,0.804
			c0.376,0.375,0.608,0.733,0.803,1.234c0.147,0.379,0.322,0.948,0.371,1.995c0.051,1.133,0.063,1.473,0.063,4.342
			C19.981,14.042,19.969,14.382,19.918,15.515z M11.173,5.436c-3.168,0-5.737,2.568-5.737,5.738c0,3.169,2.569,5.737,5.737,5.737
			s5.738-2.568,5.738-5.737C16.911,8.004,14.341,5.436,11.173,5.436z M11.173,14.755c-1.978,0-3.581-1.604-3.581-3.581
			c0-1.979,1.603-3.582,3.581-3.582s3.582,1.604,3.582,3.582C14.754,13.151,13.151,14.755,11.173,14.755z M16.909,3.956
			c-0.819,0-1.483,0.663-1.483,1.482s0.664,1.482,1.483,1.482c0.818,0,1.482-0.663,1.482-1.482S17.727,3.956,16.909,3.956z"/>
	</g>
</g>
</svg>
