<?xml version="1.0" encoding="utf-8"?>
<!-- Generator: Adobe Illustrator 15.0.0, SVG Export Plug-In . SVG Version: 6.00 Build 0)  -->
<!DOCTYPE svg PUBLIC "-//W3C//DTD SVG 1.1//EN" "http://www.w3.org/Graphics/SVG/1.1/DTD/svg11.dtd">
<svg version="1.1" id="_x34__1_" xmlns="http://www.w3.org/2000/svg" xmlns:xlink="http://www.w3.org/1999/xlink" x="0px" y="0px"
	 width="21.637px" height="23.813px" viewBox="0 0 21.637 23.813" enable-background="new 0 0 21.637 23.813" xml:space="preserve">
<g id="_x34_">
	<g>
		<path fill-rule="evenodd" clip-rule="evenodd" fill="#022739" d="M21.105,4.711c-0.424-1.677-2.6-3.762-4.33-4.146
			c-3.952-0.753-7.961-0.753-11.915,0c-1.729,0.385-3.905,2.47-4.33,4.146c-0.708,3.244-0.708,6.533,0,9.778
			c0.425,1.677,2.601,3.762,4.33,4.146c0,0,0,0,0.001,0c0.077,0.016,0.133,0.082,0.133,0.16v4.754c0,0.237,0.29,0.354,0.455,0.182
			l2.258-2.316c0,0,1.799-1.847,2.122-2.179c0.032-0.033,0.076-0.05,0.121-0.05c2.28,0.064,4.561-0.12,6.825-0.551
			c1.73-0.385,3.906-2.47,4.33-4.146C21.814,11.244,21.814,7.955,21.105,4.711z M17.088,14.848
			c-0.361,0.766-0.885,1.401-1.642,1.808c-0.214,0.114-0.468,0.151-0.709,0.226c-0.276-0.084-0.541-0.141-0.786-0.242
			c-2.54-1.054-4.877-2.413-6.729-4.497C6.17,10.957,5.346,9.619,4.649,8.203C4.319,7.531,4.041,6.834,3.757,6.142
			C3.498,5.509,3.879,4.856,4.28,4.38c0.376-0.447,0.861-0.789,1.386-1.041c0.41-0.197,0.814-0.084,1.113,0.264
			C7.426,4.354,8.02,5.142,8.5,6.012c0.296,0.535,0.215,1.189-0.321,1.554c-0.13,0.089-0.249,0.192-0.37,0.292
			c-0.107,0.088-0.207,0.177-0.28,0.295C7.396,8.369,7.39,8.626,7.475,8.861c0.661,1.816,1.775,3.229,3.604,3.99
			c0.292,0.122,0.587,0.264,0.923,0.225c0.564-0.066,0.748-0.686,1.144-1.009c0.387-0.316,0.88-0.32,1.298-0.057
			c0.416,0.263,0.819,0.547,1.221,0.833c0.395,0.28,0.787,0.555,1.15,0.875C17.164,14.026,17.283,14.43,17.088,14.848z
			 M13.808,8.928c-0.187,0.003-0.068-0.001-0.007-0.002c-0.271,0.001-0.42-0.149-0.448-0.401c-0.021-0.178-0.036-0.357-0.078-0.53
			c-0.083-0.341-0.265-0.656-0.551-0.865c-0.136-0.098-0.288-0.17-0.448-0.216c-0.205-0.06-0.416-0.043-0.619-0.093
			c-0.221-0.055-0.344-0.233-0.309-0.44c0.032-0.188,0.215-0.336,0.421-0.32c1.288,0.093,2.208,0.759,2.34,2.274
			c0.009,0.106,0.021,0.22-0.004,0.322c-0.04,0.172-0.165,0.258-0.29,0.269C13.835,8.925,13.843,8.926,13.808,8.928z M13.007,5.46
			c-0.396-0.193-0.823-0.313-1.256-0.386c-0.188-0.03-0.38-0.05-0.571-0.076c-0.23-0.032-0.354-0.179-0.343-0.406
			c0.01-0.213,0.166-0.366,0.398-0.353c0.763,0.043,1.499,0.208,2.177,0.566c1.378,0.73,2.165,1.883,2.395,3.421
			c0.011,0.069,0.027,0.138,0.033,0.209c0.013,0.172,0.021,0.345,0.034,0.573c-0.005,0.041-0.009,0.139-0.032,0.23
			c-0.088,0.334-0.594,0.375-0.711,0.039c-0.034-0.101-0.039-0.214-0.039-0.321c-0.002-0.704-0.154-1.406-0.51-2.019
			C14.218,6.309,13.66,5.78,13.007,5.46z M17.266,10.214C17,10.218,16.879,9.995,16.862,9.757c-0.034-0.474-0.058-0.948-0.123-1.417
			c-0.344-2.475-2.317-4.522-4.78-4.961c-0.371-0.066-0.75-0.084-1.125-0.123c-0.237-0.024-0.548-0.039-0.601-0.335
			c-0.044-0.247,0.165-0.443,0.4-0.457c0.064-0.003,0.128,0,0.193,0c3.322,0.094-0.064,0,0,0c3.322,0.094,6.05,2.298,6.635,5.582
			c0.1,0.56,0.135,1.132,0.18,1.699C17.658,9.984,17.523,10.212,17.266,10.214z"/>
	</g>
</g>
</svg>
