<?xml version="1.0" encoding="utf-8"?>
<!-- Generator: Adobe Illustrator 15.0.0, SVG Export Plug-In . SVG Version: 6.00 Build 0)  -->
<!DOCTYPE svg PUBLIC "-//W3C//DTD SVG 1.1//EN" "http://www.w3.org/Graphics/SVG/1.1/DTD/svg11.dtd">
<svg version="1.1" id="Эмблемма_1_" xmlns="http://www.w3.org/2000/svg" xmlns:xlink="http://www.w3.org/1999/xlink"
	 x="0px" y="0px" width="380.173px" height="185.978px" viewBox="0 0 380.173 185.978" enable-background="new 0 0 380.173 185.978"
	 xml:space="preserve">
<g id="Эмблемма">
	<g>
		<path fill-rule="evenodd" clip-rule="evenodd" fill="#FFFFFF" d="M210.872,52.243c-12.813,5.71-20.087,20.744-20.087,20.744V53.23
			h-39.927l0.206,128.424h40.544v-59.684c0,0-0.779-8.981,2.842-17.755c1.855-4.493,5.775-8.818,9.656-12.09
			c9.313-7.853,29.486-5.555,29.486-5.555l0.824-35.399C234.417,51.172,223.684,46.531,210.872,52.243z M107.815,6.76
			c-3.69-1.68-9.92-3.875-17.94-5.045c-8.205-1.197-18.169-1.35-18.869-1.367C45.898-0.277,0,0.131,0,0.131v181.216h43.22v-68.844
			c0,0,26.133,0.032,44.468-2.045c8.871-1.006,25.897-6.415,36.435-18.004c8.072-8.877,12.993-20.672,12.993-33.616v-6.561
			C137.115,32.049,125.099,14.627,107.815,6.76z M72.254,77.896H43.837V35.942h28.417c11.585,0,20.978,9.393,20.978,20.978
			S83.839,77.896,72.254,77.896z M310.119,49.218c-38.689,0-70.054,30.614-70.054,68.38s31.364,68.38,70.054,68.38
			s70.054-30.614,70.054-68.38S348.809,49.218,310.119,49.218z M310.121,150.716c-16.866,0-30.538-14.827-30.538-33.118
			s13.672-33.119,30.538-33.119c16.865,0,30.537,14.828,30.537,33.119S326.986,150.716,310.121,150.716z"/>
	</g>
</g>
</svg>
