<?xml version="1.0" encoding="utf-8"?>
<!-- Generator: Adobe Illustrator 15.0.2, SVG Export Plug-In . SVG Version: 6.00 Build 0)  -->
<!DOCTYPE svg PUBLIC "-//W3C//DTD SVG 1.1//EN" "http://www.w3.org/Graphics/SVG/1.1/DTD/svg11.dtd">
<svg version="1.1" id="Карты_1_" xmlns="http://www.w3.org/2000/svg" xmlns:xlink="http://www.w3.org/1999/xlink" x="0px"
	 y="0px" width="183px" height="33px" viewBox="0 0 183 33" enable-background="new 0 0 183 33" xml:space="preserve">
<g id="Карты">
	<g>
		<path fill-rule="evenodd" clip-rule="evenodd" fill="#FFFFFF" d="M29.945,10.333c-0.312,0-0.807,0.171-0.807,1.038
			c0,0.537,0.204,1.05,0.807,1.05c0.59,0,0.801-0.513,0.801-1.05C30.746,10.504,30.25,10.333,29.945,10.333z M37.981,10.754
			c0-0.256-0.251-0.304-0.542-0.304h-0.556v0.591h0.536C37.587,11.041,37.981,11.034,37.981,10.754z M37.513,11.621h-0.631v0.684
			h0.644c0.509,0,0.576-0.184,0.576-0.317C38.103,11.779,38.002,11.621,37.513,11.621z M165.887,14.663
			c-0.3,0.013-0.638,0-1.276,0.126l-0.15,0.776c0.238-0.025,0.876-0.125,1.215-0.113c0.338,0.013,0.714-0.037,0.601,0.501
			c-0.25,0.025-2.004-0.25-2.278,1.252c-0.113,0.739,0.525,1.115,1.026,1.09c0.501-0.024,0.639-0.088,0.814-0.213l0.125,0.2h0.914
			l0.389-1.953C167.365,15.841,167.527,14.663,165.887,14.663z M166.038,17.067c-0.063,0.326-0.525,0.534-0.839,0.414
			c-0.326-0.126-0.238-0.501,0.075-0.714s0.676-0.113,0.839-0.088L166.038,17.067z M178.734,0.525h-41.891
			c-2.012,0-3.643,1.631-3.643,3.643v24.284c0,2.012,1.631,3.643,3.643,3.643h41.891c2.012,0,3.643-1.631,3.643-3.643V4.168
			C182.377,2.156,180.746,0.525,178.734,0.525z M164.684,25.713c-2.327,0-4.444-0.814-6.116-2.179
			c1.275-1.231,2.249-2.772,2.771-4.516h-0.807c-0.506,1.55-1.394,2.916-2.548,4.014c-1.162-1.106-2.031-2.484-2.531-4.009h-0.807
			c0.52,1.732,1.477,3.276,2.742,4.504c-1.668,1.351-3.775,2.187-6.088,2.187c-5.361,0-9.709-4.347-9.709-9.709
			c0-5.361,4.348-9.708,9.709-9.708c2.313,0,4.42,0.835,6.088,2.186c-1.283,1.243-2.227,2.794-2.742,4.505h0.807
			c0.5-1.525,1.369-2.902,2.531-4.009c1.154,1.097,2.042,2.464,2.548,4.014h0.807c-0.522-1.743-1.496-3.285-2.771-4.517
			c1.672-1.364,3.789-2.179,6.116-2.179c5.361,0,9.708,4.347,9.708,9.709C174.392,21.367,170.045,25.714,164.684,25.713z
			 M168.863,15.041l-0.09-0.354h-0.847l-0.671,3.592h0.987l0.304-1.645c0.291-1.074,0.746-1.012,0.986-1.012l0.266-0.936
			C169.306,14.688,169.015,14.864,168.863,15.041z M16.078,20.623h1.22V11.65H8.325v1.222
			C12.761,13.398,15.552,16.186,16.078,20.623z M169.619,16.204c-0.318,1.088,0.326,2.078,1.027,2.078
			c0.325-0.012,0.65-0.149,0.852-0.287l0.125,0.287h1.052l0.852-4.558H172.5l-0.264,1.377c-0.188-0.138-0.3-0.426-0.764-0.426
			C170.935,14.676,170.096,14.576,169.619,16.204z M171.823,15.69c0.108,0.145,0.163,0.551,0.063,0.876
			c-0.176,0.438-0.4,0.727-0.765,0.728c-0.338,0-0.639-0.389-0.501-0.902C170.832,15.606,171.523,15.29,171.823,15.69z
			 M158.499,16.68c0.112-0.576,0.376-2.004-1.34-2.004c-1.578,0-1.778,1.565-1.815,1.791c-0.038,0.226-0.063,1.815,1.627,1.815
			c0.414,0.013,1.016-0.037,1.254-0.163l0.149-0.738c-0.149,0.037-0.714,0.088-1.103,0.088c-0.388,0-1.014,0.025-0.901-0.789
			H158.499z M157.209,15.377c0.389,0,0.502,0.301,0.438,0.651h-1.215C156.545,15.577,156.82,15.377,157.209,15.377z M153.064,16.392
			c-0.188-0.125-0.501-0.301-0.701-0.388c-0.201-0.088-0.352-0.426,0.012-0.526c0.226-0.025,0.689-0.025,0.965,0.05l0.225-0.727
			c-0.463-0.175-0.826-0.137-0.964-0.137s-1.311-0.015-1.49,0.852c-0.138,0.663,0.105,0.938,0.339,1.039
			c0.375,0.163,0.588,0.313,0.789,0.413c0.248,0.124,0.202,0.538-0.125,0.538c-0.151,0-0.803,0.075-1.291-0.087l-0.137,0.738
			c0.45,0.125,0.813,0.125,1.152,0.125c0.237,0,1.402,0.063,1.564-1.014C153.482,16.743,153.252,16.504,153.064,16.392z
			 M104.447,14.259c-0.521,1.436-1.041,2.872-1.568,4.324h2.506c-0.304-1.452-0.603-2.885-0.901-4.317
			C104.472,14.263,104.459,14.261,104.447,14.259z M163.157,14.776c0.326,0,0.501,0.024,0.752,0.175l0.639-0.639
			c-0.251-0.275-0.539-0.546-1.34-0.575c-0.677-0.025-1.835,0.468-2.204,1.815c-0.502,1.828,0.601,2.729,1.615,2.729
			c0.538,0,0.864-0.075,1.189-0.225l-0.287-0.877c-1.002,0.338-1.717-0.176-1.553-1.215
			C162.105,15.087,162.832,14.776,163.157,14.776z M149.357,14.663c-0.301,0.013-0.639,0-1.277,0.126l-0.15,0.776
			c0.238-0.025,0.877-0.125,1.215-0.113c0.338,0.013,0.713-0.037,0.602,0.501c-0.251,0.025-2.004-0.25-2.279,1.252
			c-0.113,0.739,0.525,1.115,1.026,1.09c0.501-0.024,0.639-0.088,0.813-0.213l0.126,0.2h0.913l0.389-1.953
			C150.835,15.841,150.998,14.663,149.357,14.663z M149.508,17.067c-0.063,0.326-0.525,0.534-0.84,0.414
			c-0.325-0.126-0.237-0.501,0.076-0.714c0.313-0.213,0.676-0.113,0.839-0.088L149.508,17.067z M154.617,16.955l0.275-1.452h0.5
			l0.176-0.776h-0.525l0.2-0.952h-0.978l-0.676,3.406c-0.188,0.977,0.551,1.114,0.776,1.114s0.514-0.037,0.727-0.175l0.063-0.727
			C154.592,17.481,154.566,17.23,154.617,16.955z M111.952,0.525h-41.89c-2.012,0-3.643,1.631-3.643,3.643v24.284
			c0,2.012,1.631,3.643,3.643,3.643h41.89c2.012,0,3.644-1.631,3.644-3.643V4.168C115.596,2.156,113.964,0.525,111.952,0.525z
			 M80.5,22.784c-0.923-0.008-1.846-0.011-2.77,0.002c-0.196,0.003-0.259-0.066-0.304-0.241c-0.783-3.05-1.579-6.097-2.353-9.148
			c-0.142-0.561-0.426-0.942-0.959-1.178c-0.854-0.376-1.741-0.64-2.646-0.854c-0.04-0.01-0.08-0.021-0.118-0.029
			c0.004-0.354,0.004-0.354,0.341-0.354h4.847c0.767,0,1.319,0.445,1.464,1.204c0.41,2.147,0.812,4.296,1.217,6.444
			c0.018,0.094,0.038,0.188,0.064,0.319c0.042-0.079,0.071-0.123,0.09-0.171c1.003-2.538,2.007-5.076,3.005-7.616
			c0.055-0.139,0.122-0.186,0.271-0.185c0.937,0.008,1.875,0.004,2.812,0.004c0.061,0,0.121,0.006,0.207,0.01
			c-0.16,0.384-0.311,0.75-0.464,1.116c-1.462,3.489-2.927,6.978-4.383,10.469C80.754,22.741,80.669,22.785,80.5,22.784z
			 M87.217,22.787c-0.839-0.017-1.678-0.007-2.518-0.007h-0.251c0.844-3.944,1.682-7.861,2.522-11.787h3.061
			c-0.127,0.598-0.252,1.185-0.377,1.771c-0.693,3.243-1.39,6.486-2.076,9.73C87.531,22.72,87.451,22.791,87.217,22.787z
			 M96.59,22.054c-0.817,0.542-1.742,0.784-2.705,0.873c-1.345,0.126-2.664-0.025-3.948-0.447c-0.086-0.028-0.17-0.063-0.254-0.098
			c-0.025-0.011-0.047-0.028-0.085-0.053c0.181-0.851,0.363-1.701,0.55-2.577c0.219,0.096,0.424,0.191,0.635,0.276
			c1.004,0.404,2.041,0.59,3.115,0.389c0.28-0.053,0.565-0.176,0.802-0.335c0.515-0.345,0.564-0.992,0.096-1.397
			c-0.309-0.267-0.678-0.463-1.029-0.677c-0.547-0.333-1.129-0.618-1.646-0.991c-0.665-0.479-1.146-1.116-1.237-1.965
			c-0.137-1.271,0.334-2.302,1.31-3.103c0.848-0.697,1.855-1.007,2.928-1.137c0.061-0.008,0.118-0.027,0.177-0.042h1.427
			c0.375,0.069,0.754,0.127,1.125,0.213c0.338,0.078,0.67,0.187,1.03,0.289c-0.182,0.85-0.358,1.678-0.532,2.488
			c-0.475-0.14-0.93-0.3-1.396-0.402c-0.638-0.142-1.292-0.195-1.932-0.017c-0.259,0.072-0.521,0.211-0.727,0.386
			c-0.35,0.301-0.355,0.733-0.02,1.049c0.23,0.218,0.504,0.396,0.777,0.561c0.622,0.374,1.275,0.699,1.879,1.099
			c0.712,0.47,1.23,1.117,1.34,1.991C98.461,19.974,97.889,21.191,96.59,22.054z M109.104,22.773h-2.842
			c-0.104-0.499-0.215-0.988-0.304-1.481c-0.036-0.204-0.103-0.284-0.33-0.281c-1.14,0.015-2.28,0.012-3.419,0.002
			c-0.173-0.001-0.241,0.056-0.294,0.213c-0.157,0.47-0.329,0.935-0.505,1.398c-0.023,0.063-0.103,0.148-0.156,0.149
			c-1.027,0.009-2.055,0.007-3.111,0.007c0.192-0.464,0.375-0.907,0.561-1.349c1.324-3.16,2.648-6.32,3.974-9.48
			c0.287-0.684,0.718-0.971,1.458-0.971h2.494c0.082,0.386,0.166,0.765,0.245,1.146c0.651,3.123,1.302,6.246,1.956,9.368
			c0.083,0.4,0.182,0.797,0.273,1.195V22.773z M40.375,12.061c0,0.293,0.339,0.36,0.529,0.36c0.251,0,0.752-0.152,0.752-0.775V11.45
			c-0.312,0.122-0.278,0.104-0.678,0.164C40.761,11.646,40.375,11.713,40.375,12.061z M160.117,15.077l-0.088-0.351h-0.838
			l-0.664,3.556h0.977l0.301-1.628c0.287-1.063,0.752-0.989,0.988-0.989l0.251-0.938C160.557,14.727,160.268,14.901,160.117,15.077z
			 M45.778,0.525H3.888c-2.012,0-3.643,1.631-3.643,3.643v24.284c0,2.012,1.631,3.643,3.643,3.643h41.89
			c2.012,0,3.643-1.631,3.643-3.643V4.168C49.42,2.156,47.79,0.525,45.778,0.525z M32.067,9.826h1.031v1.795
			c0,0.616,0.196,0.8,0.577,0.8c0.65,0,0.698-0.629,0.698-0.854v-1.74h1.03v3.102h-1.03v-0.373c-0.38,0.385-0.746,0.488-1.153,0.488
			c-1.112,0-1.153-0.902-1.153-1.276V9.826z M11.136,23.782H5.154v-5.979h5.982V23.782z M20.46,23.785h-7.444v-1.581
			c0-4.162-2.111-6.273-6.272-6.273H5.162V8.488H20.46V23.785z M23.583,8.654h4.029v4.273h-1.119V9.484h-1.791v3.443h-1.12V8.654z
			 M29.724,23.896h-5.766v-1.218l2.943-2.956c0.313-0.317,0.523-0.59,0.632-0.817c0.109-0.229,0.164-0.454,0.164-0.679
			c0-0.324-0.104-0.574-0.311-0.748s-0.511-0.261-0.91-0.261c-0.334,0-0.636,0.067-0.905,0.203
			c-0.269,0.135-0.494,0.338-0.676,0.608l-1.286-0.881c0.298-0.472,0.708-0.841,1.231-1.107c0.523-0.267,1.123-0.4,1.799-0.4
			c0.566,0,1.063,0.099,1.487,0.296c0.425,0.197,0.756,0.476,0.992,0.835c0.236,0.359,0.354,0.782,0.354,1.27
			c0,0.44-0.087,0.854-0.262,1.241c-0.174,0.386-0.512,0.826-1.013,1.321l-1.755,1.763h3.281V23.896z M29.186,12.608v1.448h-1.032
			v-4.23h0.97l-0.007,0.373h0.021c0.394-0.446,0.869-0.489,1.113-0.489c0.97,0,1.566,0.647,1.566,1.673
			c0,0.983-0.604,1.66-1.586,1.66C30.094,13.043,29.531,13.014,29.186,12.608z M37.332,22.192h-1.243v1.704h-1.722v-1.704h-4.109
			v-1.265l3.597-5.147h1.853l-3.335,4.881h2.049v-1.519h1.667v1.519h1.243V22.192z M37.899,12.928h-2.047V9.826h2.055
			c0.319,0,1.133,0,1.133,0.751c0,0.422-0.326,0.672-0.699,0.727v0.019c0.569,0.11,0.821,0.323,0.821,0.812
			C39.161,12.769,38.646,12.928,37.899,12.928z M42.863,12.928h-1.084l-0.088-0.307h-0.02c-0.272,0.307-0.733,0.422-1.153,0.422
			c-1.098,0-1.201-0.641-1.201-0.896c0-0.708,0.658-0.879,1.282-0.971c0.759-0.104,1.031-0.043,1.051-0.348v-0.086
			c-0.014-0.402-0.441-0.409-0.557-0.409c-0.184,0-0.631,0.037-0.631,0.495h-0.983C39.527,9.747,40.728,9.71,41.1,9.71
			c1.553,0,1.587,0.801,1.581,1.16l-0.02,1.416c-0.007,0.335,0.006,0.544,0.202,0.586V12.928z M46.105,10.45h-1.14v2.478h-1.03
			V10.45h-1.139V9.826h3.309V10.45z M146.215,13.949l-1.19,2.63l-0.188-2.63h-1.564l-0.84,4.333h0.977l0.602-3.131l0.264,3.131
			h0.926l1.365-3.055l-0.576,3.055h1.015l0.813-4.333H146.215z"/>
	</g>
</g>
</svg>
