<?xml version="1.0" encoding="utf-8"?>
<!-- Generator: Adobe Illustrator 15.0.0, SVG Export Plug-In . SVG Version: 6.00 Build 0)  -->
<!DOCTYPE svg PUBLIC "-//W3C//DTD SVG 1.1//EN" "http://www.w3.org/Graphics/SVG/1.1/DTD/svg11.dtd">
<svg version="1.1" id="Корзина_1_" xmlns="http://www.w3.org/2000/svg" xmlns:xlink="http://www.w3.org/1999/xlink" x="0px"
	 y="0px" width="18.144px" height="18.154px" viewBox="0 0 18.144 18.154" enable-background="new 0 0 18.144 18.154"
	 xml:space="preserve">
<g id="Корзина">
	<g>
		<path fill-rule="evenodd" clip-rule="evenodd" fill="#2b2b2b" d="M5.917,11.066h6.302c0.42,0,0.756-0.337,0.756-0.756
			c0-0.418-0.336-0.756-0.756-0.756H5.917c-0.418,0-0.756,0.338-0.756,0.756C5.161,10.729,5.502,11.066,5.917,11.066z M5.917,14.846
			h6.302c0.42,0,0.756-0.337,0.756-0.756c0-0.418-0.336-0.756-0.756-0.756H5.917c-0.418,0-0.756,0.338-0.756,0.756
			C5.161,14.509,5.502,14.846,5.917,14.846z M17.392,6.246h-2.001C15.35,2.793,12.531,0,9.07,0S2.79,2.793,2.753,6.246h-2
			C0.044,6.302-0.029,6.909,0.007,7.128l1.764,10.396c0.063,0.363,0.378,0.63,0.745,0.63h13.109c0.369,0,0.685-0.267,0.744-0.63
			l1.768-10.396C18.174,6.909,18.084,6.299,17.392,6.246z M9.07,1.512c2.627,0,4.765,2.115,4.805,4.731h-9.61
			C4.305,3.627,6.443,1.512,9.07,1.512z M14.986,16.643H3.157L1.645,7.758h14.85L14.986,16.643z"/>
	</g>
</g>
</svg>
