<?xml version="1.0" encoding="utf-8"?>
<!-- Generator: Adobe Illustrator 15.0.0, SVG Export Plug-In . SVG Version: 6.00 Build 0)  -->
<!DOCTYPE svg PUBLIC "-//W3C//DTD SVG 1.1//EN" "http://www.w3.org/Graphics/SVG/1.1/DTD/svg11.dtd">
<svg version="1.1" id="_x33__1_" xmlns="http://www.w3.org/2000/svg" xmlns:xlink="http://www.w3.org/1999/xlink" x="0px" y="0px"
	 width="27.705px" height="16.142px" viewBox="0 0 27.705 16.142" enable-background="new 0 0 27.705 16.142" xml:space="preserve">
<g id="_x33_">
	<g>
		<path fill-rule="evenodd" clip-rule="evenodd" fill="#FFFFFF" d="M13.853,0C6.202,0,0,8.071,0,8.071s6.202,8.07,13.853,8.07
			s13.853-8.07,13.853-8.07S21.503,0,13.853,0z M13.869,2.492c2.073,0,3.753,1.68,3.753,3.753c0,2.072-1.68,3.753-3.753,3.753
			c-2.073,0-3.753-1.681-3.753-3.753C10.116,4.172,11.796,2.492,13.869,2.492z M13.856,13.674c-5.967,0-10.805-5.603-10.805-5.603
			s2.033-2.342,5.08-3.998C7.875,4.749,7.718,5.475,7.718,6.239c0,3.398,2.755,6.153,6.153,6.153s6.152-2.755,6.152-6.153
			c0-0.758-0.154-1.477-0.406-2.147c3.027,1.655,5.045,3.979,5.045,3.979S19.823,13.674,13.856,13.674z"/>
	</g>
</g>
</svg>
