<?xml version="1.0" encoding="utf-8"?>
<!-- Generator: Adobe Illustrator 15.0.0, SVG Export Plug-In . SVG Version: 6.00 Build 0)  -->
<!DOCTYPE svg PUBLIC "-//W3C//DTD SVG 1.1//EN" "http://www.w3.org/Graphics/SVG/1.1/DTD/svg11.dtd">
<svg version="1.1" id="Логотип_1_" xmlns="http://www.w3.org/2000/svg" xmlns:xlink="http://www.w3.org/1999/xlink" x="0px"
	 y="0px" width="316.371px" height="22.812px" viewBox="0 0 316.371 22.812" enable-background="new 0 0 316.371 22.812"
	 xml:space="preserve">
<g id="Логотип">
	<g>
		<path fill-rule="evenodd" clip-rule="evenodd" d="M41.778,0.427L30.167,22.3h5.528l2.785-5.239H48.7l2.869,5.239h5.563
			L45.397,0.427H41.778z M40.972,12.386l2.62-4.888l2.639,4.888H40.972z M314.07,10.563c-1.433-1.196-3.36-1.931-5.729-2.183
			c-1.077-0.116-2.184-0.182-3.133-0.233c-3.468-0.195-4.617-0.662-4.988-0.92c-0.2-0.145-0.35-0.294-0.423-0.42
			c-0.059-0.102-0.086-0.208-0.086-0.334c0-0.158,0-0.579,0.925-1.092c0.847-0.467,1.976-0.704,3.356-0.704
			c1.379,0,2.736,0.224,4.036,0.665c1.294,0.439,2.564,1.115,3.774,2.006l0.954,0.706l3.004-3.962l-1.044-0.712
			c-1.618-1.104-3.368-1.953-5.199-2.526C307.707,0.287,305.835,0,303.952,0c-2.653,0-4.863,0.578-6.568,1.719
			c-1.862,1.24-2.807,2.877-2.807,4.865c0,1.121,0.336,2.142,0.996,3.032c0.624,0.842,1.542,1.539,2.732,2.076
			c2.098,0.873,5.603,1.099,7.491,1.221c0.521,0.025,1.043,0.054,1.575,0.105c1.321,0.099,2.339,0.397,3.024,0.889
			c0.554,0.387,0.801,0.809,0.801,1.37c0,0.776-0.401,1.392-1.264,1.936c-1.014,0.636-2.396,0.958-4.11,0.958
			c-1.432,0-2.907-0.264-4.388-0.782c-1.484-0.514-2.945-1.285-4.345-2.291l-0.969-0.695l-2.951,4.043l0.988,0.707
			c1.733,1.233,3.581,2.16,5.49,2.754c1.897,0.601,3.988,0.905,6.214,0.905c3.007,0,5.502-0.665,7.417-1.975
			c2.05-1.403,3.091-3.25,3.091-5.487C316.371,13.457,315.597,11.846,314.07,10.563z M240.456,0c-3.442,0-6.346,1.078-8.631,3.205
			c-2.309,2.147-3.48,4.909-3.48,8.207c0,3.283,1.166,6.04,3.465,8.193c2.283,2.128,5.193,3.206,8.646,3.206
			c3.471,0,6.393-1.078,8.682-3.206c2.315-2.147,3.488-4.904,3.488-8.193c0-3.288-1.178-6.045-3.5-8.195
			C246.836,1.082,243.919,0,240.456,0z M245.515,16.228c-1.338,1.283-2.994,1.907-5.059,1.907c-2.067,0-3.721-0.623-5.055-1.906
			c-1.32-1.267-1.961-2.843-1.961-4.816c0-1.969,0.641-3.545,1.961-4.819c1.341-1.289,2.994-1.915,5.055-1.915
			c2.083,0,3.738,0.622,5.063,1.902c1.316,1.271,1.955,2.852,1.955,4.832C247.474,13.386,246.833,14.962,245.515,16.228z
			 M12.153,11.488L4.245,0.427H0V22.3h4.985V9.593l7.165,9.866l7.165-9.866V22.3h4.999V0.427H20.11L12.153,11.488z M84.084,11.476
			c1.123-1.228,1.691-2.72,1.691-4.435c0-2.063-0.741-3.713-2.202-4.903c-1.384-1.135-3.272-1.711-5.612-1.711H64.671V22.3h5.017
			v-8.52h6.309l5.275,8.52h5.723l-5.563-9.019C82.463,12.881,83.354,12.273,84.084,11.476z M80.049,8.552
			c-0.457,0.366-1.216,0.551-2.257,0.551h-8.105V5.069h8.235c0.944,0,1.652,0.192,2.105,0.574c0.405,0.338,0.593,0.805,0.593,1.47
			C80.621,7.795,80.445,8.238,80.049,8.552z M215.737,14.291c-0.728,1.265-1.653,2.231-2.752,2.875
			c-1.107,0.644-2.39,0.969-3.812,0.969c-2.067,0-3.72-0.623-5.054-1.906c-1.32-1.266-1.961-2.842-1.961-4.816
			c0-1.97,0.642-3.546,1.961-4.819c1.34-1.289,2.993-1.915,5.054-1.915c1.331,0,2.552,0.285,3.629,0.85
			c1.023,0.537,1.824,1.301,2.379,2.267l0.634,1.108l4.292-2.82l-0.696-1.011c-1.121-1.624-2.594-2.892-4.381-3.769
			C213.274,0.438,211.304,0,209.174,0c-3.442,0-6.347,1.078-8.632,3.205c-2.308,2.146-3.478,4.908-3.478,8.207
			c0,3.284,1.166,6.041,3.465,8.193c2.286,2.128,5.194,3.206,8.645,3.206c2.325,0,4.447-0.509,6.306-1.511
			c1.871-1.015,3.365-2.485,4.443-4.369l0.547-0.96l-4.08-2.806L215.737,14.291z M282.504,9.891c0.19-0.238,0.358-0.491,0.501-0.756
			c0.426-0.778,0.643-1.674,0.643-2.661c0-1.983-0.695-3.521-2.066-4.57c-1.289-0.993-3.066-1.477-5.432-1.477h-13.678V22.3h14.34
			c2.469,0,4.479-0.623,5.973-1.853c1.564-1.29,2.358-3.041,2.358-5.206c0-1.358-0.356-2.589-1.061-3.658
			C283.673,10.962,283.143,10.394,282.504,9.891z M267.487,5.069h8.887c0.848,0,1.477,0.145,1.816,0.42
			c0.27,0.217,0.4,0.587,0.4,1.131c0,0.497-0.131,0.823-0.426,1.057c-0.367,0.292-0.969,0.438-1.791,0.438h-8.887V5.069z
			 M279.331,17.008c-0.461,0.438-1.117,0.651-2.005,0.651h-9.839v-4.902h9.839c0.884,0,1.54,0.214,2.005,0.655
			c0.441,0.422,0.656,1.009,0.656,1.794C279.987,16,279.772,16.589,279.331,17.008z M112.795,14.29
			c-0.729,1.266-1.656,2.232-2.752,2.876c-1.107,0.644-2.39,0.969-3.812,0.969c-2.065,0-3.72-0.623-5.057-1.906
			c-1.318-1.267-1.959-2.843-1.959-4.816c0-1.969,0.641-3.545,1.961-4.819c1.341-1.289,2.994-1.915,5.055-1.915
			c1.331,0,2.552,0.285,3.628,0.849c1.027,0.541,1.827,1.303,2.379,2.268l0.635,1.107l4.292-2.82l-0.699-1.01
			c-1.118-1.623-2.592-2.891-4.378-3.769C110.329,0.438,108.358,0,106.231,0c-3.443,0-6.347,1.078-8.63,3.205
			c-2.31,2.146-3.481,4.908-3.481,8.207c0,3.286,1.167,6.044,3.467,8.193c2.283,2.128,5.192,3.206,8.644,3.206
			c2.324,0,4.446-0.509,6.304-1.511c1.875-1.018,3.369-2.487,4.443-4.369l0.547-0.96l-4.079-2.806L112.795,14.29z M175.737,0.427
			L164.124,22.3h5.529l2.787-5.239h10.221l2.869,5.239h5.559L179.354,0.427H175.737z M174.929,12.386l2.623-4.888l2.638,4.888
			H174.929z M152.432,14.236c0,2.121-0.501,2.874-0.8,3.133c-0.559,0.487-1.926,0.766-3.75,0.766c-2.034,0-3.479-0.233-4.294-0.694
			c-0.623-0.351-0.888-0.855-0.888-1.688v-4.235h-5.018v4.308c0,2.359,0.88,4.16,2.618,5.35c1.612,1.102,3.938,1.637,7.107,1.637
			c3.479,0,5.942-0.591,7.532-1.806c1.667-1.274,2.512-3.334,2.512-6.122V0.427h-5.018V14.236z"/>
	</g>
</g>
</svg>
