<?xml version="1.0" encoding="utf-8"?>
<!-- Generator: Adobe Illustrator 15.0.0, SVG Export Plug-In . SVG Version: 6.00 Build 0)  -->
<!DOCTYPE svg PUBLIC "-//W3C//DTD SVG 1.1//EN" "http://www.w3.org/Graphics/SVG/1.1/DTD/svg11.dtd">
<svg version="1.1" xmlns="http://www.w3.org/2000/svg" xmlns:xlink="http://www.w3.org/1999/xlink" x="0px" y="0px"
	 width="350.263px" height="299.651px" viewBox="0 0 350.263 299.651" enable-background="new 0 0 350.263 299.651"
	 xml:space="preserve">
<g id="_x31__1_" enable-background="new    ">
	<g id="_x31_">
		<g>
			<path fill-rule="evenodd" clip-rule="evenodd" fill="#020001" d="M319.714,271.919v-6.199c0-2.672-1.064-3.761-3.674-3.761
				h-24.511c-2.573,0-3.623,1.089-3.623,3.761v6.199h6.704v-2.694c0-0.515,0.151-0.606,0.576-0.606h4.876v30.424h7.495v-30.424
				h4.825c0.426,0,0.576,0.092,0.576,0.606v2.694H319.714z M348.961,292.382c-0.586,0-0.768-0.077-1.054-0.787l-10.494-29.636
				h-7.491l-10.552,29.659c-0.177,0.543-0.465,0.764-0.997,0.764h-1.351v6.66h4.415c2.662,0,3.777-0.802,4.583-3.287l2.103-5.957
				h11.088l2.1,5.945c0.81,2.497,1.924,3.299,4.587,3.299h4.365v-6.66H348.961z M329.95,283.291l2.743-8.367
				c0.311-0.921,0.631-2.089,0.987-3.605l0.955,3.589l2.795,8.384H329.95z M215.105,261.35c-5.24,0-9.719,1.845-13.311,5.484
				c-3.54,3.587-5.336,8.1-5.336,13.412c0,5.426,1.793,10.072,5.334,13.815c3.608,3.709,8.088,5.59,13.313,5.59
				c5.244,0,9.707-1.882,13.266-5.592c3.57-3.721,5.381-8.369,5.381-13.813c0-5.33-1.813-9.844-5.383-13.409
				C224.826,263.195,220.364,261.35,215.105,261.35z M222.832,288.942c-2.143,2.349-4.67,3.49-7.727,3.49s-5.584-1.142-7.727-3.49
				c-2.138-2.344-3.178-5.188-3.178-8.696c0-3.285,1.067-6.072,3.174-8.286c2.127-2.283,4.656-3.393,7.73-3.393
				c3.076,0,5.604,1.109,7.734,3.396c2.104,2.21,3.17,4.997,3.17,8.282C226.01,283.754,224.971,286.599,222.832,288.942z
				 M274.145,265.923v25.853c0,0.515-0.15,0.606-0.576,0.606h-9.57v-30.423h-7.494v30.423h-9.57c-0.426,0-0.576-0.092-0.576-0.606
				v-25.853c0-2.668-1.25-3.964-3.822-3.964h-6.885v6.659h2.636c0.425,0,0.576,0.092,0.576,0.606v25.853
				c0,2.705,1.229,3.965,3.871,3.965h35.036c2.641,0,3.87-1.26,3.87-3.965v-25.853c0-0.515,0.151-0.606,0.577-0.606h2.635v-6.659
				h-6.885C275.395,261.959,274.145,263.255,274.145,265.923z M191.045,291.775v-25.853c0-2.704-1.23-3.964-3.871-3.964h-28.233
				v6.659h3.212v30.424h7.495v-30.424h13.326c0.425,0,0.576,0.092,0.576,0.606v25.853c0,2.705,1.229,3.965,3.871,3.965h6.836v-6.66
				h-2.636C191.195,292.382,191.045,292.29,191.045,291.775z M57.383,261.139c-5.323,0-9.873,1.845-13.522,5.482
				c-3.6,3.587-5.425,8.101-5.425,13.415c0,5.428,1.823,10.075,5.422,13.818c3.666,3.707,8.217,5.586,13.525,5.586
				c5.327,0,9.861-1.88,13.478-5.589c3.63-3.721,5.47-8.37,5.47-13.815c0-5.332-1.843-9.846-5.473-13.412
				C67.258,262.984,62.725,261.139,57.383,261.139z M65.247,288.729c-2.18,2.351-4.752,3.493-7.864,3.493
				c-3.112,0-5.684-1.143-7.864-3.493c-2.173-2.344-3.229-5.188-3.229-8.693c0-3.284,1.084-6.069,3.226-8.283
				c2.164-2.285,4.738-3.396,7.868-3.396c3.13,0,5.704,1.111,7.872,3.4c2.138,2.209,3.222,4.995,3.222,8.279
				C68.477,283.542,67.42,286.386,65.247,288.729z M25.57,265.713v11.323H10.868v-11.323c0-2.705-1.248-3.965-3.927-3.965H0v6.659
				h2.671c0.472,0,0.594,0.125,0.594,0.607v29.816h7.603v-15.135H25.57v15.135h7.603v-29.816c0-0.482,0.122-0.607,0.594-0.607h2.671
				v-6.659h-6.941C26.965,261.748,25.57,263.156,25.57,265.713z M101.701,279.218c2.34-1.629,3.758-4.479,3.758-7.664
				c0-2.992-1.115-5.493-3.225-7.231c-2.043-1.684-4.927-2.574-8.337-2.574H77.511v6.659h3.265v26.459
				c0,2.705,1.248,3.965,3.927,3.965h9.394c3.638,0,6.684-0.924,9.048-2.744c2.469-1.857,3.72-4.627,3.72-8.229
				C106.866,283.862,104.87,280.577,101.701,279.218z M88.279,268.407h5.668c2.448,0,3.91,1.48,3.91,3.959
				c0,2.498-1.495,4.111-3.81,4.111h-5.769V268.407z M94.65,292.172h-5.777c-0.472,0-0.594-0.125-0.594-0.606v-8.784h6.372
				c2.741,0,4.513,1.833,4.513,4.67C99.163,290.363,97.434,292.172,94.65,292.172z M140.306,291.382l-10.667-29.634h-7.6
				l-10.727,29.657c-0.18,0.545-0.476,0.767-1.022,0.767h-1.365v6.659h4.479c2.701,0,3.832-0.801,4.65-3.284l2.139-5.96h11.288
				l2.135,5.947c0.823,2.496,1.954,3.297,4.655,3.297h4.429v-6.659h-1.315C140.783,292.172,140.591,292.078,140.306,291.382z
				 M122.051,283.08l2.789-8.364c0.317-0.927,0.646-2.106,1.012-3.64l0.98,3.623l2.84,8.381H122.051z"/>
		</g>
	</g>
</g>
<g id="_x32__1_" enable-background="new    ">
	<g id="_x32_">
		<g>
			<path fill-rule="evenodd" clip-rule="evenodd" fill="#FF0D14" d="M213.27,175.395h-16.022c-2.962,0-5.315-2.347-5.315-5.862
				c0-32.257,0-32.257,0-32.257c0-2.948-2.393-5.296-5.96-5.296c-30.224,0-30.224,0-30.224,0c-2.961,0-5.352,2.348-5.352,5.296
				c0,32.257,0,32.257,0,32.257c0,3.516-2.355,5.862-5.353,5.862c-17.2,0-17.2,0-17.2,0c-2.961,0-4.138,1.74-1.748,3.517
				c40.321,40.464,40.321,40.464,40.321,40.464c1.178,1.172,2.677,1.776,4.14,1.776c1.499,0,2.961-0.604,4.175-1.776
				c40.321-40.464,40.321-40.464,40.321-40.464C217.408,177.135,216.23,175.395,213.27,175.395z M104.114,64.586
				c-0.712-0.354-1.748-0.07-2.961,1.103c-40.928,40.465-40.928,40.465-40.928,40.465c-2.355,2.344-2.355,5.896,0,7.636
				c40.928,41.069,40.928,41.069,40.928,41.069c1.214,0.889,2.249,1.175,2.961,0.889c0.75-0.284,1.214-1.171,1.214-2.663v-85.62
				C105.328,65.973,104.864,64.941,104.114,64.586z M174.731,1.138L171.984,0h-2.855l-2.713,1.138
				c-41.535,41.068-41.535,41.068-41.535,41.068c-1.784,2.344-1.177,4.12,1.785,4.12h18.376c2.998,0,5.353,2.345,5.353,5.294
				c0,30.48,0,30.48,0,30.48c0,2.948,2.39,5.295,5.352,5.295c30.224,0,30.224,0,30.224,0c3.567,0,5.96-2.347,5.96-5.295
				c0-30.48,0-30.48,0-30.48c0-2.949,2.354-5.294,5.315-5.294c17.2,0,17.2,0,17.2,0c2.961,0,3.566-1.776,1.783-4.12
				C174.731,1.138,174.731,1.138,174.731,1.138z M280.889,106.153C240.566,66.86,240.566,66.86,240.566,66.86
				c-0.892-1.172-1.784-1.6-2.463-1.386c-0.676,0.214-1.105,1.101-1.105,2.559v83.876c0,1.492,0.43,2.522,1.105,2.88
				c0.679,0.354,1.571,0.069,2.463-1.101c40.322-39.899,40.322-39.899,40.322-39.899
				C283.243,112.05,283.243,108.497,280.889,106.153z M242.248,42.216c0.215,0.855,0.343,1.454,0.557,1.711h1.712
				c-0.129-0.257-0.3-0.642-0.514-1.711c-0.214-0.942-0.557-1.499-1.241-1.712v-0.086c0.813-0.257,1.455-0.813,1.455-1.669
				c0-0.685-0.3-1.198-0.728-1.498c-0.471-0.343-1.069-0.556-2.396-0.556c-1.155,0-2.054,0.128-2.696,0.213v7.019h1.627v-2.782h0.77
				C241.691,41.145,242.12,41.487,242.248,42.216z M240.066,39.99v-2.012c0.171-0.043,0.471-0.086,0.898-0.086
				c1.027,0,1.498,0.429,1.498,1.07c0,0.728-0.729,1.027-1.627,1.027H240.066z M248.324,40.289c0-3.937-3.166-7.018-7.146-7.018
				h-0.043c-4.022,0-7.231,3.081-7.231,7.018c0,3.938,3.209,7.062,7.231,7.062S248.324,44.227,248.324,40.289z M235.701,40.289
				c0-3.081,2.354-5.605,5.392-5.605h0.043c3.081,0,5.392,2.524,5.392,5.649c0,3.081-2.311,5.605-5.349,5.563
				C238.055,45.896,235.701,43.414,235.701,40.289z"/>
		</g>
	</g>
</g>
</svg>
