<?xml version="1.0" encoding="utf-8"?>
<!-- Generator: Adobe Illustrator 15.0.0, SVG Export Plug-In . SVG Version: 6.00 Build 0)  -->
<!DOCTYPE svg PUBLIC "-//W3C//DTD SVG 1.1//EN" "http://www.w3.org/Graphics/SVG/1.1/DTD/svg11.dtd">
<svg version="1.1" xmlns="http://www.w3.org/2000/svg" xmlns:xlink="http://www.w3.org/1999/xlink" x="0px" y="0px"
	 width="437.586px" height="304.94px" viewBox="0 0 437.586 304.94" enable-background="new 0 0 437.586 304.94"
	 xml:space="preserve">
<g id="_x31__1_" enable-background="new    ">
	<g id="_x31_">
		<g>
			<path fill-rule="evenodd" clip-rule="evenodd" fill="#5BB923" d="M76.955,258.487c-2.818,0-8.303,0.464-12.843,5.228h-0.237
				l0.081-3.984H52.759v45.21h11.909v-15.474c3.983,4.329,10.485,4.641,12.051,4.641c11.347,0,18.312-7.23,18.312-17.745
				C95.031,265.406,88.156,258.487,76.955,258.487z M73.427,287.455c-6.962,0-9.315-5.472-9.315-11.216
				c0-9.263,5.718-11.09,9.315-11.09c3.528,0,9.243,1.827,9.243,11.09C82.669,281.983,80.237,287.455,73.427,287.455z M0,292.874
				h12.923v-36.795h20.666v36.795h12.913v-45.668H0V292.874z M124.55,278.322c0,2.415-0.552,9.133-8.057,9.133
				c-4.394,0-6.663-1.954-6.663-8.542V259.73H97.929v20.74c0,3.992,0.478,13.637,13.311,13.637c4.696,0,8.921-1.104,13.311-5.219
				v3.985h11.896V259.73H124.55V278.322z M350.067,286.02l0.233-15.136c0.078-3.842-0.312-12.396-18.238-12.396
				c-4.304,0-18.161,0.396-18.706,11.949h11.353c0-4.9,5.166-5.287,7.27-5.287c1.343,0,6.275,0.068,6.426,4.365v0.922
				c-0.228,3.258-3.363,2.603-12.132,3.713c-7.204,0.979-14.799,2.81-14.799,10.372c0,2.738,1.176,9.586,13.864,9.586
				c4.849,0,10.171-1.233,13.3-4.504h0.239l1.02,3.271h12.527v-0.591C350.145,291.829,349.989,289.604,350.067,286.02z
				 M338.481,279.173c0,6.652-5.79,8.282-8.685,8.282c-2.2,0-6.107-0.715-6.107-3.843c0-3.726,4.459-4.439,6.964-4.771
				c4.615-0.649,4.226-0.454,7.828-1.753V279.173z M381.618,272.195h-14.325V259.73h-11.891v33.144h11.891v-14.032h14.325v14.032
				h11.903V259.73h-11.903V272.195z M288.386,264.173h-13.228v-8.094h29.655v-8.873h-42.572v45.668h26.145
				c12.683,0,20.822-4.433,20.822-13.76C309.208,264.504,292.93,264.173,288.386,264.173z M285.641,283.995h-10.482v-10.956h10.723
				c3.128,0,9.392,0.338,9.392,5.803C295.273,283.151,290.73,283.995,285.641,283.995z M170.335,275.714v-0.195
				c4.31-0.584,8.068-3.259,8.068-7.763c0-8.025-9.394-8.025-13.074-8.025h-23.718v33.144h23.637c8.615,0,14.563-1.7,14.563-8.482
				C179.812,279.173,176.91,276.895,170.335,275.714z M153.51,266.393h6.421c3.364,0,6.259,0.513,6.259,3.252
				c0,2.998-4.537,3.07-6.498,3.07h-6.182V266.393z M160.943,286.215h-7.434v-7.302h7.281c5.644,0,6.804,1.688,6.804,3.914
				C167.594,284.255,166.817,286.215,160.943,286.215z M420.438,275.252l16.369-15.521h-13.234l-12.761,13.309h-0.233V259.73
				h-11.897v33.144h11.897v-14.486h0.233l12.839,14.486h13.936L420.438,275.252z M220.208,286.02l0.234-15.136
				c0.078-3.842-0.318-12.396-18.246-12.396c-4.303,0-18.154,0.396-18.712,11.949h11.352c0-4.9,5.16-5.287,7.282-5.287
				c1.331,0,6.264,0.068,6.426,4.365v0.922c-0.24,3.258-3.375,2.603-12.138,3.713c-7.204,0.979-14.798,2.81-14.798,10.372
				c0,2.738,1.181,9.586,13.857,9.586c4.855,0,10.177-1.233,13.312-4.504h0.234l1.019,3.271h12.515v-0.591
				C220.287,291.829,220.125,289.604,220.208,286.02z M208.617,279.173c0,6.652-5.79,8.282-8.685,8.282
				c-2.187,0-6.107-0.715-6.107-3.843c0-3.726,4.459-4.439,6.971-4.771c4.608-0.649,4.226-0.454,7.821-1.753V279.173z
				 M221.773,266.393h13.15v26.481h11.891v-26.481h13.156v-6.662h-38.197V266.393z M222.042,186.865v21.543h101.415V0H115.031v101.4
				h21.557C193.277,101.4,222.042,130.166,222.042,186.865z M158.123,43.087h122.248v122.234h-16.619
				c-7.166-60.452-45.182-98.424-105.629-105.597V43.087z"/>
		</g>
	</g>
</g>
<g id="_x32__1_" enable-background="new    ">
	<g id="_x32_">
		<g>
			<rect x="114.934" y="126.901" fill-rule="evenodd" clip-rule="evenodd" fill="#020001" width="81.498" height="81.472"/>
		</g>
	</g>
</g>
</svg>
