<?xml version="1.0" encoding="utf-8"?>
<!-- Generator: Adobe Illustrator 15.0.0, SVG Export Plug-In . SVG Version: 6.00 Build 0)  -->
<!DOCTYPE svg PUBLIC "-//W3C//DTD SVG 1.1//EN" "http://www.w3.org/Graphics/SVG/1.1/DTD/svg11.dtd">
<svg version="1.1" id="Трубка_1_" xmlns="http://www.w3.org/2000/svg" xmlns:xlink="http://www.w3.org/1999/xlink" x="0px"
	 y="0px" width="71.226px" height="71.993px" viewBox="0 0 71.226 71.993" enable-background="new 0 0 71.226 71.993"
	 xml:space="preserve">
<g id="Трубка">
	<g>
		<path fill-rule="evenodd" clip-rule="evenodd" fill="#ffffff" d="M53.382,42.512c0,0-5.75-2.785-6.932-3.326
			c-1.182-0.54-1.783,0.341-1.783,0.341s-1.742,2.204-2.304,2.925c-0.562,0.722-0.882,1.362-2.344,0.882s-4.396-2.061-6.792-4.207
			c-2.396-2.147-4.227-4.989-4.748-5.85c-0.521-0.862,0.08-1.403,0.08-1.403s1.518-1.747,2.244-2.684
			c0.726-0.937,0.274-1.981,0.101-2.404s-2.504-5.898-2.845-6.671c-0.341-0.772-1.082-0.901-1.082-0.901s-2.27,0-2.764,0
			c-0.495,0-1.442,0.601-1.442,0.601c-2.841,1.819-3.322,6.063-3.405,6.979c-0.083,0.916-0.167,2.859,1.333,6.136
			c1.499,3.274,5.163,7.716,9.688,11.936c4.525,4.219,11.463,6.034,13.561,6.621c2.098,0.586,6.529-0.454,8.613-2.704
			c2.084-2.249,1.604-4.587,1.563-5.368C54.083,42.632,53.382,42.512,53.382,42.512z M36.134,0C16.753,0,1.042,15.71,1.042,35.091
			c0,9.618,5.092,18.216,5.092,18.216L0,71.993l19.228-6.145c0,0,7.138,4.333,16.906,4.333c19.381,0,35.092-15.71,35.092-35.091
			S55.515,0,36.134,0z M36.134,64.567c-9.023,0-16.245-4.877-16.245-4.877L8.805,63.308l3.596-10.73c0,0-5.744-7.952-5.744-17.486
			c0-16.279,13.197-29.477,29.477-29.477c16.279,0,29.477,13.197,29.477,29.477S52.413,64.567,36.134,64.567z"/>
	</g>
</g>
</svg>
